<svg version="1.2" xmlns="http://www.w3.org/2000/svg" viewBox="0 0 2580 2000" width="700" height="543">
	<title>Team of happy people jumping for joy of winning money-ai</title>
	<style>
		.s0 { fill: #ebf5ec } 
		.s1 { fill: #281833 } 
		.s2 { fill: #ffb27d } 
		.s3 { fill: #ea5160 } 
		.s4 { fill: #a1a059 } 
		.s5 { fill: #e7925c } 
		.s6 { fill: #080435 } 
		.s7 { fill: #020202 } 
		.s8 { fill: #ffffff } 
		.s9 { fill: #ffcd1c } 
		.s10 { fill: #748fc9 } 
		.s11 { fill: #fff042 } 
		.s12 { fill: #e9633e } 
		.s13 { fill: #5c79bb } 
		.s14 { fill: #6d6d3d } 
	</style>
	<g id="&lt;Layer&gt;">
		<g id="&lt;Group&gt;">
			<g id="&lt;Group&gt;">
				<path id="&lt;Path&gt;" class="s0" d="m2243.7 1677c0 70.5-424.3 127.7-947.8 127.7-523.5 0-947.8-57.2-947.8-127.7 0-70.6 424.3-127.8 947.8-127.8 523.5 0 947.8 57.2 947.8 127.8z"/>
			</g>
			<g id="&lt;Group&gt;">
				<g id="&lt;Group&gt;">
					<path id="&lt;Path&gt;" class="s1" d="m657.2 1027.7c14.8 8-13.3 25.6 9.6 30.5 12.8 2.8 6.2 22.6 1.5 29.8-4.7 7.2-101 27.7-126.4 31.1-25.4 3.3-71.8-24.3-40.3-52.2 31.6-27.8 65.4-12.8 60.4-20.4-5.1-7.6-10.1-21.8 15.3-26.3q25.4-4.6 23.8-24.2 41.2 23.6 56.1 31.7z"/>
				</g>
				<g id="&lt;Group&gt;">
					<g id="&lt;Group&gt;">
						<path id="&lt;Path&gt;" class="s2" d="m749.6 1097c-22.1 14.5-52.1 25.9-81.4 17.4l6.1-41.8c17.2 5.1 39.2-4.3 50.9-11.9 25.9-16.9 41.6-64.5 43.5-80.3l40.3-8c-0.1 0.8-4.7 36.1-12.3 57.9-10 28.8-24.6 50.4-43.2 64q-1.9 1.4-3.9 2.7z"/>
					</g>
				</g>
				<g id="&lt;Group&gt;">
					<path id="&lt;Path&gt;" class="s1" d="m375.3 1404.2q-33.2-5.5-43.3-2c-10 3.4-33.7 19.5-32 5.5 1-8 24.8-24.4 30.8-29.7 6.1-5.4 9.4-13.7 17.5-13 3.9 0.4 8.3 7.6 14.7 11q10.8 5.8 23.7 8.9 9.8 11.6 5.2 15.9-6.6 6.1-16.6 3.4z"/>
				</g>
				<g id="&lt;Group&gt;">
					<path id="&lt;Path&gt;" class="s1" d="m597.7 1635.2q11.5 31.4 19.4 38.4c8 7 33.6 19.7 20.6 25-7.6 3.1-33.6-9.5-41.3-12.1-7.6-2.6-16.6-1.4-19.9-8.8-1.6-3.5 2.6-10.9 2.4-18q-0.2-12.2-3.7-24.9 5.4-14.2 11.4-12.3 8.6 2.7 11.1 12.7z"/>
				</g>
				<g id="&lt;Group&gt;">
					<path id="&lt;Path&gt;" class="s3" d="m677.1 1308.3c-2.6 27.6-7.1 63.2-14.7 106.7-14.4 83.4-31.4 167.4-39.7 207.6-3 14.4-15.3 24.9-29.8 25.4l-7.8 0.3c-15.6 0.5-28.3-12.9-27-28.8l21.2-272.5 2.9-48.9q99.4-35.4 94.9 10.2z"/>
				</g>
				<g id="&lt;Group&gt;">
					<path id="&lt;Path&gt;" class="s1" d="m590.3 1263.7c51.4-3.8 93.4 8.5 94.2 20 0.7 11.5-39.9 17.8-91.3 21.6-51.4 3.8-90.9-14.4-91.7-25.9-0.8-11.5 37.4-11.9 88.8-15.7z"/>
				</g>
				<g id="&lt;Group&gt;">
					<path id="&lt;Path&gt;" class="s3" d="m640.2 1290.4l-72.3 153.3c-11.2 23.8-37 37.3-63.2 33.1-14.7-2.3-24.4-16.3-21.5-30.7l32.1-157.9c0.9-3.9 14.7-5.6 18.6-5.9 32.5-2.5 108.4-6.3 106.3 8.1z"/>
				</g>
				<g id="&lt;Group&gt;">
					<path id="&lt;Path&gt;" class="s4" d="m564.4 1094q23.6-36.1 73.5-22.3c23.6 6.5 52.9 5.8 54.7 50.1 1.6 39.9 4.8 86.3-8.1 161.9q-80.6-31.7-183-4.3c0.4-4.3 6-116.6 30.4-177.1 7-17.3 24.6 3.2 32.5-8.3z"/>
				</g>
				<g id="&lt;Group&gt;">
					<path id="&lt;Path&gt;" class="s4" d="m589.6 1067.7c7.5-0.2 21.9-0.6 29.6-0.3q33.8 1.4 74.6-2.9 18.1 23.8-0.6 61.1-11.3 22.6-142.9 6.6l-43.1-41.1q29.6-21.5 82.4-23.4z"/>
				</g>
				<g id="&lt;Group&gt;">
					<path id="&lt;Path&gt;" class="s1" d="m535.7 1097.3c14 11.5 18.2 30.2 14.6 34.9-4.7 6.2-16.7 2-31.4-10.4-14.7-12.5-15.5-26.5-11.7-30.7 2.7-3 14-5.7 28.5 6.2z"/>
				</g>
				<g id="&lt;Group&gt;">
					<path id="&lt;Path&gt;" class="s3" d="m535.8 1282.2q69.8-11.1 138 4.2c3.1 0.7 5.2 3.6 4.9 6.8l-2.6 25.2-71.3-18z"/>
				</g>
				<g id="&lt;Group&gt;">
					<path id="&lt;Path&gt;" class="s2" d="m599.3 1067.5c6.5-0.7 12.1-4.7 14.7-10.6l8.1-18.4 2.4-5.4 13.9-31.5-2.6 32.7-0.6 8-0.7 8.9-0.2 2.8-0.5 5.6q-0.5 6.8 6.3 8 6.9 13.4-3.2 16.5c-11.8 3.7-30.9-5.7-37.7-16.6q0.1 0 0.1 0z"/>
				</g>
				<g id="&lt;Group&gt;">
					<path id="&lt;Path&gt;" class="s5" d="m635.2 1042.3l-0.7 8.9q-8.5-2.3-12.4-12.7 7.9 1.9 13.1 3.8z"/>
				</g>
				<g id="&lt;Group&gt;">
					<path id="&lt;Path&gt;" class="s1" d="m611.9 999.2l5.9 3.6q0.6 27.4 0 27.9c-4.8 4.6-23.3-2.2-18.6-18.3q3.1-11 1.9-16.4z"/>
				</g>
				<g id="&lt;Group&gt;">
					<ellipse id="&lt;Path&gt;" class="s2" cx="639.8" cy="1006.8" rx="31" ry="37.9"/>
				</g>
				<g id="&lt;Group&gt;">
					<path id="&lt;Path&gt;" class="s1" d="m652.3 977.8c-0.9 1.2 3.9 20.7-32.6 25.2-36.5 4.4-14.3-39.3 12.6-40.2 38.8-1.2 44.3 24.7 40.5 34q-3.8 9.3-20.5-19z"/>
				</g>
				<g id="&lt;Group&gt;">
					<path id="&lt;Path&gt;" class="s1" d="m623.7 996.8q-14.9 15.5-9.9 31.4-8.5-9.4-8.7-12.9-0.2-3.5 2.2-16.1z"/>
				</g>
				<g id="&lt;Group&gt;">
					<path id="&lt;Path&gt;" class="s2" d="m611.3 1001.1c2.5-2.9 7.4-2.5 10.9 0.8 3.5 3.4 4.3 8.5 1.7 11.3-2.6 2.9-7.5 2.6-11-0.8-3.5-3.3-4.2-8.4-1.6-11.3z"/>
				</g>
				<g id="&lt;Group&gt;">
					<g id="&lt;Group&gt;">
						<path id="&lt;Path&gt;" class="s6" d="m642.4 1007.2c-0.2-0.1-4.4-0.5-7.6 1.6-0.3 0.3-0.7 0.3-1 0.1-0.3-0.3-0.3-0.7 0-1 4.2-4.5 8.9-2.1 9.1-2 0.4 0.2 0.5 0.6 0.4 0.9-0.1 0.2-0.3 0.4-0.5 0.4q-0.2 0.1-0.4 0z"/>
					</g>
				</g>
				<g id="&lt;Group&gt;">
					<ellipse id="&lt;Path&gt;" class="s6" cx="637.6" cy="1014.7" rx="2.2" ry="3"/>
				</g>
				<g id="&lt;Group&gt;">
					<g id="&lt;Group&gt;">
						<path id="&lt;Path&gt;" class="s6" d="m667.6 1010.8c-0.2-0.1-3.9-2.1-7.7-1.3-0.4 0-0.8 0-0.9-0.4-0.2-0.3 0-0.7 0.3-0.9 5.6-2.6 9.1 1.5 9.2 1.6 0.3 0.3 0.3 0.7 0 1-0.1 0.2-0.3 0.2-0.5 0.2q-0.3 0-0.4-0.2z"/>
					</g>
				</g>
				<g id="&lt;Group&gt;">
					<path id="&lt;Path&gt;" class="s6" d="m660.9 1013c1.1 0.5 1.5 2.1 0.8 3.6-0.7 1.5-2.2 2.4-3.3 1.9-1.1-0.5-1.5-2.2-0.8-3.7 0.7-1.5 2.2-2.3 3.3-1.8z"/>
				</g>
				<g id="&lt;Group&gt;">
					<g id="&lt;Group&gt;">
						<path id="&lt;Path&gt;" class="s1" d="m557.7 1026.3c1.3-5.4 5.4-11.8 17.4-11.7 22.4 0 26-17.4 26.1-18.1l2 0.3c-0.1 0.2-4.1 19.8-28.1 19.7-8.2 0-13.3 3.1-15.2 9.3-2.2 6.9 0.6 15.4 1.7 16.2l-0.8 1.7c-2.1-1-4.9-9.9-3.1-17.4z"/>
					</g>
				</g>
				<g id="&lt;Group&gt;">
					<path id="&lt;Path&gt;" class="s3" d="m512.7 1477.6c-29.3-0.9-98.6-29.6-137.1-46.4-15-6.6-21.8-23.9-15.2-38.8l0.8-1.9c5.4-12.3 18.5-19.6 32-17.7l132.7 18.9q41.4 87.5-13.2 85.9z"/>
				</g>
				<g id="&lt;Group&gt;">
					<path id="&lt;Path&gt;" class="s7" d="m574.8 1431.2l-1.7-0.7q22-57.9 29-76.1c7-18.3 27.7-32.4 28.6-33l1 1.5c-0.2 0.1-21.1 14.4-27.9 32.1q-7 18.3-29 76.2z"/>
				</g>
				<g id="&lt;Group&gt;">
					<path id="&lt;Path&gt;" class="s8" d="m655.6 1029.8q-2.9 6.4-9 6.4-7.5 0-8.9-7.8 9.1 3.1 17.9 1.4z"/>
				</g>
				<g id="&lt;Group&gt;">
					<g id="&lt;Group&gt;">
						<path id="&lt;Path&gt;" class="s2" d="m463.6 1159c-23-2.7-46.4-14.3-69.6-34.4-17.4-15.2-42.6-47.8-43.1-48.4l43-11.7c9.6 12.8 46.5 49.4 77.4 51.3 13.3 0.9 25.5-4.3 37.3-15.7 1.8-1.7 4.3-2.5 6.7-2.1 4.7 0.7 12.9 3.7 23.8 15.1q7.6 7.9 2.1 15.5c-21.2 21.9-46.4 32.5-73 30.8q-2.3-0.2-4.6-0.4z"/>
					</g>
				</g>
				<g id="&lt;Group&gt;">
					<path id="&lt;Path&gt;" class="s2" d="m771.5 986.1c-3.5-5.9-7.7-19.1-11-25-1.5-2.6-5.8-11.7-3.4-13.4 2.1-1.5 8.9 4.1 11.8 7.1 2.1-24 14.2-54 12.4-5.8q0 0 0.1 0c0.5-4.1 2.9-34.5 9.7-31.9 5 1.9 2.2 26.8 1.4 33.6q0.1 0 0.2 0c1.4-6.8 4.2-27.7 9.1-26.1q6.3 2 1.7 28.8 3.3-22.3 9.3-17.4c3.3 2.7 1 15.9-0.6 24q0 0 0 0c-0.4 1.7-0.7 3.2-0.9 4.4q-0.2 1.4-0.7 2.4-3.5 13.5-8.1 21.5-3.6 10.4-15.8 8.9c-7.8-1-13.7-8.5-15.2-11.1z"/>
				</g>
				<g id="&lt;Group&gt;">
					<path id="&lt;Path&gt;" class="s2" d="m386.3 1092.2q-10.1 6.9-18.2-0.7-7.8-5-17.2-15.3-0.9-0.7-1.8-1.8c-0.7-0.9-1.7-2.1-2.8-3.5q0 0 0 0c-5.2-6.5-13.4-17-11.7-21q3-7.1 16.3 11.2-16.6-21.6-11.9-26.4c3.6-3.6 15.8 13.6 20.2 19q0.1 0 0.2-0.1c-3.8-5.7-18-26.5-14.5-30.4 4.9-5.4 21.2 20.4 23.6 23.8q0 0 0.1 0c-24.1-41.9 0.6-20.9 13.6-0.6 1.2-4 4.6-12.1 7.2-11.7 2.9 0.4 3.3 10.4 3.3 13.4-0.2 6.8 2.2 20.4 1.9 27.3-0.2 2.9-1.9 12.3-8.3 16.8z"/>
				</g>
			</g>
			<g id="&lt;Group&gt;">
				<g id="&lt;Group&gt;">
					<g id="&lt;Group&gt;">
						<path id="&lt;Path&gt;" class="s2" d="m1727.5 854.5q-12.4 2-16.7-8.6-5.1-8.2-9.5-22.1-0.6-1.1-0.9-2.5c-0.3-1.2-0.7-2.7-1.1-4.5q0 0 0 0c-2.1-8.4-5.3-21.9-2-24.9q5.9-5.3 10.5 17.7-6.3-27.6 0.1-29.9c4.9-1.8 9 19.7 10.8 26.8q0.1-0.1 0.2-0.1c-1.1-7-5.5-32.8-0.5-34.9 6.8-2.9 11.1 28.6 11.8 32.8q0.1 0 0.1 0c-4.6-50 9.5-19.2 13 5.6 2.8-3.3 9.5-9.4 11.7-7.8 2.6 1.7-1.3 11.2-2.7 14-3.1 6.3-6.6 20.1-9.8 26.4-1.4 2.7-7.1 10.7-15 12z"/>
					</g>
					<g id="&lt;Group&gt;">
						<path id="&lt;Path&gt;" class="s9" d="m1980.1 1075.8q-19.3 92.3-2.1 157.8-50.2-34.3-212.4-5.9c-7.9-35.5-6.2-73.2 3.7-143.7 7.1-51 66.8-84.5 125.8-79.9q76.5 6.1 83.8 47.7c2.3 7.4 3.2 14.7 1.2 24z"/>
					</g>
					<g id="&lt;Group&gt;">
						<g id="&lt;Group&gt;">
							<path id="&lt;Path&gt;" class="s9" d="m2100.4 900.1c-8.9 51.1-61.2 106.7-99.5 148.1-11.7 12.7-17 20.3-22.5 37.6-1.1 3.5-66.7-78.1-59.9-78.4 31.8-1.3 119.8-81.7 136-134.4z"/>
						</g>
					</g>
					<g id="&lt;Group&gt;">
						<path id="&lt;Path&gt;" class="s9" d="m1769.4 1083.9c7.2-30.1-3.1-44.4-8.3-53.7-50.4-90.2-53.4-160.7-52.9-182.4 0.1-4.1 3-7.6 7.1-8.4l22-4.8c7-1.5 13.8 3.3 14.7 10.3q15.1 115.7 127.9 159.8z"/>
					</g>
					<g id="&lt;Group&gt;">
						<path id="&lt;Path&gt;" class="s1" d="m1978.2 1233.4c-0.1 10.2-47.6 15.4-106.5 14.5-58.9-0.9-106-10.2-105.9-20.3 0.1-10.1 48.9-27.3 107.8-26.4 58.8 0.8 104.7 22.1 104.6 32.2z"/>
					</g>
					<g id="&lt;Group&gt;">
						<g id="&lt;Group&gt;">
							<path id="&lt;Path&gt;" class="s2" d="m1905.9 1008.1c-9.9 8-32.2 11-42.3 3.8-8-5.8 1.6-12.8 3.2-14 3.8-2.8 6.4-3.2 7.5-7.2l1.5-5.9 4.8-18.7 7.9-31.1 3.2 33.6 0.5 5.7 1.8 19.7c0.6 6.3 11.9 14 11.9 14.1z"/>
						</g>
						<g id="&lt;Group&gt;">
							<path id="&lt;Path&gt;" class="s1" d="m1892.7 979.6q-7.5 7.3-16.9 5.2l2.6-11.4z"/>
						</g>
						<g id="&lt;Group&gt;">
							<g id="&lt;Group&gt;">
								<path id="&lt;Path&gt;" class="s1" d="m1876.9 923.6q-14.9 21.4-14.8 11.4 0-10 3.6-17.2z"/>
							</g>
							<g id="&lt;Group&gt;">
								<path id="&lt;Path&gt;" class="s2" d="m1860.3 937.6c6.4-18 23.8-28.4 38.8-23.1 15.1 5.3 22.1 24.1 15.7 42.1-6.4 18-23.8 28.4-38.8 23.1-15.1-5.3-22.1-24.1-15.7-42.1z"/>
							</g>
							<g id="&lt;Group&gt;">
								<path id="&lt;Path&gt;" class="s1" d="m1917.5 947.1l-13.3-4.3c-3-0.9-5.4-3.1-6.5-6-1.8-4.9-4.7-7.9-17.6-10.1-16.3-2.8-24.9-14.6-24.9-23.3 0.1-8.9 9.6-13 16.8-7.2 7.3 5.8 5.9-5 13.9-4.4 15.1 1.1 15.4 12.8 27.4 14.9 15.8 2.8 41.3 20.5 22.2 45.1z"/>
							</g>
							<g id="&lt;Group&gt;">
								<g id="&lt;Group&gt;">
									<path id="&lt;Path&gt;" class="s6" d="m1886.4 945.4q-0.2-0.2-0.2-0.5c0-0.3 0.3-0.6 0.6-0.5 0.2 0 4.7 0.1 5.8 5.1 0.1 0.3-0.1 0.6-0.4 0.7-0.3 0.1-0.5-0.1-0.7-0.4-1.5-2.9-4.7-4.3-4.8-4.3q-0.2 0-0.3-0.1z"/>
								</g>
							</g>
							<g id="&lt;Group&gt;">
								<path id="&lt;Path&gt;" class="s6" d="m1887.3 953.2c-0.7 1.2-1.9 1.8-2.8 1.4-0.9-0.5-1.1-1.9-0.5-3.1 0.7-1.2 1.9-1.8 2.8-1.4 0.9 0.5 1.1 1.8 0.5 3.1z"/>
							</g>
							<g id="&lt;Group&gt;">
								<g id="&lt;Group&gt;">
									<path id="&lt;Path&gt;" class="s6" d="m1865.5 939.2q-0.2-0.1-0.2-0.3c-0.1-0.3 0.1-0.6 0.4-0.7 0.1-0.1 3.6-1.9 5.7 1.8 0.1 0.3 0 0.6-0.2 0.8-0.2 0.2-0.5 0.2-0.7 0-1.8-1.8-4.6-1.6-4.7-1.6q-0.1 0.1-0.3 0z"/>
								</g>
							</g>
							<g id="&lt;Group&gt;">
								<ellipse id="&lt;Path&gt;" class="s6" cx="1867.7" cy="946" rx="1.8" ry="2.5"/>
							</g>
							<g id="&lt;Group&gt;">
								<path id="&lt;Path&gt;" class="s1" d="m1935.5 951.8q-13.8 18.2-27.5 16.9 14.1-13.1-6.7-27.3 21.7 1.1 34.2 10.4z"/>
							</g>
							<g id="&lt;Group&gt;">
								<path id="&lt;Path&gt;" class="s2" d="m1914.2 959c-3.2 1.2-6.8-0.2-7.8-3-1.1-2.9 0.6-6.2 3.9-7.4 3.2-1.3 6.7 0.1 7.8 3 1.1 2.9-0.6 6.2-3.9 7.4z"/>
							</g>
							<g id="&lt;Group&gt;">
								<path id="&lt;Path&gt;" class="s8" d="m1865.3 959.1q8.3 4.2 18.1 5.3-3.3 8.6-12.7 4.8-5.4-2.2-5.4-10.1z"/>
							</g>
							<g id="&lt;Group&gt;">
								<path id="&lt;Path&gt;" class="s1" d="m1875.3 895.3q-0.7 0.1-1.5-0.1l0.2-0.8c3.7 0.9 4.6-2 4.7-2.1l0.7 0.2c0 0-0.9 2.8-4.1 2.8z"/>
							</g>
							<g id="&lt;Group&gt;">
								<path id="&lt;Path&gt;" class="s8" d="m1876.5 921.3c-0.7-0.4-16.5-8.9-15.3-18.1 0.3-2.7 1.1-4.3 2.5-5.1 2.2-1.1 5.2 0.3 7.9 1.5q0.6 0.3 1.2 0.5l-0.2 0.4q-0.5-0.3-1.1-0.5c-2.7-1.3-5.6-2.6-7.6-1.5-1.3 0.7-2 2.2-2.4 4.7-1.1 9 15 17.6 15.2 17.7z"/>
							</g>
							<g id="&lt;Group&gt;">
								<path id="&lt;Path&gt;" class="s8" d="m1919.4 911.3c-17.5-1.3-23.7-12.5-23.8-12.6l0.4-0.2c0 0.1 6.1 11.1 23.4 12.4z"/>
							</g>
						</g>
					</g>
					<g id="&lt;Group&gt;">
						<path id="&lt;Path&gt;" class="s3" d="m1867.9 1026.3c-6.1-1.8-7.6-16.6-3.8-19.6q3.8-2.9 16.9 2.2c5.9 4-7 19.1-13.1 17.4z"/>
					</g>
					<g id="&lt;Group&gt;">
						<path id="&lt;Path&gt;" class="s1" d="m2054.5 873c3.4-6.2 15.3-3.6 28.3 3.3 13.1 6.9 20.9 17.6 17.6 23.8-3.4 6.2-14.4 10.5-29.7-1.3-11.7-8.9-19.5-19.6-16.2-25.8z"/>
					</g>
					<g id="&lt;Group&gt;">
						<path id="&lt;Path&gt;" class="s1" d="m1845.3 1170.1c2.3-0.4 4.1 1.5 4.5 3.8 0.5 2.4-1.1 4.6-3.4 5-2.4 0.5-4.7-1.1-5.1-3.4-0.4-2.3 0.6-4.8 4-5.4z"/>
					</g>
					<g id="&lt;Group&gt;">
						<path id="&lt;Path&gt;" class="s1" d="m1849.6 1131.7c2.4-0.5 4.1 1.5 4.6 3.8 0.4 2.3-1.2 4.6-3.5 5-2.4 0.4-4.6-1.1-5.1-3.4-0.4-2.4 0.7-4.8 4-5.4z"/>
					</g>
					<g id="&lt;Group&gt;">
						<path id="&lt;Path&gt;" class="s1" d="m1855 1088.1c2.3-0.4 4.1 1.5 4.5 3.9 0.5 2.3-1.1 4.6-3.4 5-2.4 0.4-4.7-1.1-5.1-3.5-0.4-2.3 0.6-4.8 4-5.4z"/>
					</g>
					<g id="&lt;Group&gt;">
						<path id="&lt;Path&gt;" class="s1" d="m1889.4 1611.3q7.5-0.2 15.5-4.6 9.5 31.6 2.1 38.5c-6.8 6.2-16 2.9-25.6 3.4-9.5 0.5-43.2 6-50.7 0.6-13.1-9.4 20.2-15.1 31.6-20.1q11.3-5.1 10.9-20.7 5.5 3.2 16.2 2.9z"/>
					</g>
					<g id="&lt;Group&gt;">
						<path id="&lt;Path&gt;" class="s10" d="m1886.9 1233.4l2.8 62.4 39.1 294.8c2.3 17.1-11.9 32.4-30.4 32.7l-9.2 0.2c-17.1 0.2-32.2-10.5-36.4-25.9-11.9-43.3-36.3-133.5-57.6-223.2-12-50.2-18.1-98.2-20.4-119.9-2.3-21.3 4.2-25.2 40-33.4z"/>
					</g>
					<g id="&lt;Group&gt;">
						<path id="&lt;Path&gt;" class="s1" d="m2030.1 1611.3q7.4-0.2 15.5-4.6 9.5 31.6 2.1 38.5c-6.8 6.2-16 2.9-25.6 3.4-9.5 0.5-43.2 6-50.7 0.6-13.1-9.4 20.2-15.1 31.6-20.1q11.3-5.1 10.9-20.7 5.5 3.2 16.2 2.9z"/>
					</g>
					<g id="&lt;Group&gt;">
						<path id="&lt;Path&gt;" class="s10" d="m1963.5 1233.4l96.6 356.5c4.2 16.6-8.9 32.8-27.2 33.5l-7.7 0.3c-17.8 0.6-34-9.4-40.2-24.9l-170.2-377.7c77.4-14.7 146.4 4.3 148.7 12.3z"/>
					</g>
					<g id="&lt;Group&gt;">
						<path id="&lt;Path&gt;" class="s7" d="m1906.9 1426.4c-0.4 0-0.7-0.2-0.8-0.6l-35.2-107.7c-1-2.4-2-5.1-3.1-7.8-6.2-16-13.9-35.9-35.9-49.5-0.4-0.2-0.5-0.7-0.3-1.1 0.3-0.4 0.8-0.6 1.2-0.3 22.5 13.9 30.3 34 36.6 50.3 1.1 2.7 2.1 5.3 3.2 7.8l35.1 107.8c0.2 0.4-0.1 0.9-0.5 1.1q-0.2 0-0.3 0z"/>
					</g>
					<g id="&lt;Group&gt;">
						<path id="&lt;Path&gt;" class="s2" d="m2066.9 874.2c-1.1-6.9-0.1-21.1-1-28.1-0.4-3.1-1-13.3 1.9-14.2 2.6-0.7 7 7.2 8.6 11.2 11.2-22.5 34.4-47.2 14.1-1.2q0.1 0.1 0.1 0.1c2-3.8 16.1-32.3 21.6-27.4 4.1 3.6-8.2 26.7-11.5 33q0.1 0 0.2 0.1c3.9-6.2 14.6-25.3 18.7-22q5.3 4.2-9.4 28.4 11.7-20.3 15.5-13.5c2.2 3.9-5.1 15.8-9.7 23.1q-0.1 0-0.1 0c-0.9 1.5-1.8 2.8-2.4 3.8q-0.8 1.3-1.7 2.2-8.5 11.7-16 17.8-7.5 8.8-18.6 2.9c-7.1-3.7-9.9-13.1-10.3-16.2z"/>
					</g>
					<g id="&lt;Group&gt;">
						<path id="&lt;Path&gt;" class="s3" d="m1876.3 1024.5c3.9 19 25.7 93.2 130.2 131.7 6.7 2.5 12.7 6.5 17.5 11.8l18.9 21.1c3.5 3.8 2.1 9.8-2.6 11.9l-27.8 12c-9.6 4.1-20.3 4.5-30.1 1.1-33.9-12-121-73.5-121-195.5 0-5.2 4.3-1.1 9.4 0.2 2.8 0.7 4.9 2.9 5.5 5.7z"/>
					</g>
					<g id="&lt;Group&gt;">
						<path id="&lt;Path&gt;" class="s11" d="m1873.4 1004.9q18-4.9 21.9-10.8c3.9-5.9 21 9.7 20.4 13.9-0.7 4.2-35.2 25.4-37.1 22.2-1.9-3.1-9.8-21.6-5.2-25.3z"/>
					</g>
					<g id="&lt;Group&gt;">
						<path id="&lt;Path&gt;" class="s11" d="m1872.1 1007.9c-1.5 1.5-14 16.1-18.6 14.7-4.7-1.4-3.4-15.8-1.8-18.8 1.5-3 16.8-12 19.5-12q2.7 0 1.6 3-1.5 3.4 0.6 10.1 0.1 1.6-1.3 3z"/>
					</g>
					<g id="&lt;Group&gt;">
						<path id="&lt;Path&gt;" class="s1" d="m1868.5 1026.6q-0.3 0-0.6 0c-4.1-0.4-6.7-7.5-6.8-7.8l0.6-0.3c0 0.1 2.6 7.1 6.2 7.5 3.7 0.3 7.3-2.9 7.4-2.9l0.4 0.5c-0.2 0.1-3.5 3-7.2 3z"/>
					</g>
				</g>
			</g>
			<g id="&lt;Group&gt;">
				<g id="&lt;Group&gt;">
					<g id="&lt;Group&gt;">
						<g id="&lt;Group&gt;">
							<path id="&lt;Path&gt;" class="s2" d="m1274.6 894.8c23.9 45.7 49.2 79.6 94.1 124.2 10.4 10.3 14.5 14.1 21.4 19.2 5.6 4.1 4.6 18.6-2.4 28.1-6.6 8.9-18.5 12.3-26.2 8.6-5.7-2.8-10.8-6.9-22.6-18.2-40.9-39.3-62.6-73.7-100.6-151.4z"/>
						</g>
					</g>
					<g id="&lt;Group&gt;">
						<path id="&lt;Path&gt;" class="s1" d="m1431.7 1640.6q6.5 0.5 13.8-3 5.6 30.8-1.5 36.6c-6.4 5.3-14.1 1.4-22.5 1-8.4-0.3-38.2 2-44.3-3.7-10.5-10 19-12.6 29.3-16.4q10.3-3.8 11.3-18.6 4.5 3.5 13.9 4.1z"/>
					</g>
					<g id="&lt;Group&gt;">
						<path id="&lt;Path&gt;" class="s1" d="m1548 1645.4q6.5 0.4 13.9-3 5.6 30.7-1.5 36.5c-6.5 5.3-14.2 1.4-22.6 1.1-8.3-0.4-38.1 2-44.2-3.8-10.6-10 18.9-12.6 29.2-16.3q10.3-3.8 11.3-18.7 4.6 3.5 13.9 4.2z"/>
					</g>
					<g id="&lt;Group&gt;">
						<path id="&lt;Path&gt;" class="s4" d="m1457.9 1249.2l1.2 92.9 8.6 282.3c0.5 16.4-13.1 29.7-29.3 28.4l-8-0.7c-14.9-1.2-27.1-12.6-29.5-27.6-6.6-41.9-20.1-129.4-31-216.1q-15-120.2-10.6-182.3z"/>
					</g>
					<g id="&lt;Group&gt;">
						<path id="&lt;Path&gt;" class="s1" d="m1532.9 1280.6c-0.3 7.6-43.4 10.1-96.6 7.6-53.2-2.4-95.4-6.5-95.1-14.2 0.3-7.6 43-15.8 96.2-13.4 53.3 2.5 95.9 12.4 95.5 20z"/>
					</g>
					<g id="&lt;Group&gt;">
						<path id="&lt;Path&gt;" class="s4" d="m1509 1277.5c4.1 0.5 18.2 3 19 7l54.2 350.5c2.2 16.1-10.6 30.3-26.6 29.4l-6.8-0.4c-15.5-0.9-28.7-11.8-32.8-27l-117.1-356.2c-1.4-14.9 76.7-7.4 110.1-3.3z"/>
					</g>
					<g id="&lt;Group&gt;">
						<path id="&lt;Path&gt;" class="s3" d="m1362.5 1086.3q-13.6-35.6 13.7-63.2 34 14.1 55.6 17.9 34.5 6.1 72.7-10.7 39.1 31.2 15.7 60.4c-4 4.9-3.2 27-2.8 30.1q10.7 85.1 15.6 159.1-106.7-33.7-191.8-5.9c-2.8-76.4 13.8-147.5 21.3-187.7z"/>
					</g>
					<g id="&lt;Group&gt;">
						<path id="&lt;Path&gt;" class="s7" d="m1463.5 1480.3l-22.9-118.8c-4.7-16.6-15.4-30.8-29.9-39.9l1-1.6c14.9 9.4 25.9 23.9 30.8 41.1l22.8 118.8z"/>
					</g>
					<g id="&lt;Group&gt;">
						<path id="&lt;Path&gt;" class="s4" d="m1434.9 1292.8l-74.4 15.2-1.4-26.2c-0.2-3.3 2.1-6.2 5.4-6.7q71-12.6 142.6 2.2z"/>
					</g>
					<g id="&lt;Group&gt;">
						<path id="&lt;Path&gt;" class="s1" d="m1510 1028.7c10.6-0.5 19.9 12.7 20.8 29.5 0.9 16.8-6.9 30.9-17.5 31.5-10.5 0.6-19.8-12.6-20.7-29.5-0.9-16.8 6.9-30.9 17.4-31.5z"/>
					</g>
					<g id="&lt;Group&gt;">
						<g id="&lt;Group&gt;">
							<g id="&lt;Group&gt;">
								<path id="&lt;Path&gt;" class="s2" d="m1655.5 892.6c-36.3 91.1-62.1 129-104.4 166.8-12.2 10.9-17.5 14.9-23.2 17.5-7.8 3.4-19.6-0.4-25.9-9.5-6.6-9.8-7.1-24.2-1.4-28.2 7.1-4.9 11.3-8.5 22.1-18.5 46.4-42.9 86-95.1 96.6-137.7z"/>
							</g>
						</g>
						<g id="&lt;Group&gt;">
							<path id="&lt;Path&gt;" class="s2" d="m1621.2 893.9c-1.7-6-2.4-18.6-3.9-24.6-0.7-2.6-2.4-11.6 0.1-12.6 2.2-0.9 6.9 5.5 8.8 8.8 6.1-16.8 27.2-42.4 12.2-2.5q0.1 0 0.1 0c1.4-3.5 13-28.9 17-25.2 3.6 3.2-5.3 23.2-7.5 29.1q0 0 0.1 0c2.8-5.8 9.9-23 13.9-20.4q4 2.6-3.8 26.2 8.7-21.2 11-14.6c0.5 1.5-2.8 14.3-6.1 21.2q0 0 0 0.1c-0.7 1.4-1.3 2.7-1.7 3.6q-0.6 1.2-1.3 2.1-6.2 11.2-12.1 17.4-5.6 8.4-16 4.5c-6.6-2.5-10.1-10.5-10.8-13.1z"/>
						</g>
					</g>
					<g id="&lt;Group&gt;">
						<path id="&lt;Path&gt;" class="s2" d="m1261.8 919.7q-10.4 3.9-16-4.6-5.9-6.2-12.1-17.4-0.7-0.8-1.2-2c-0.5-1-1.1-2.2-1.8-3.7q0 0 0 0c-3.3-6.9-6.6-19.7-6-21.3q2.3-6.5 11 14.6-7.8-23.5-3.8-26.1c4-2.7 11.1 14.6 13.8 20.4q0.1 0 0.2-0.1c-2.2-5.9-11.1-25.8-7.6-29.1 4-3.7 15.7 21.7 17.1 25.3q0 0 0 0c-15-40 6.1-14.3 12.3 2.5 1.9-3.3 6.6-9.8 8.8-8.9 2.5 1.1 0.8 10 0.1 12.6-1.6 6.1-2.2 18.7-3.9 24.7-0.8 2.6-4.2 10.6-10.9 13.1z"/>
					</g>
					<g id="&lt;Group&gt;">
						<g id="&lt;Group&gt;">
							<path id="&lt;Path&gt;" class="s2" d="m1454.5 1042.1c-10.1 11.4-23.5 16.4-33.5 10.5q-5.4-3.3-2.6-14.7c4.6 0.4 9.1-0.7 10.7-4.7l1.9-4.9 6.8-17.4 11.3-28.8-1.2 32.4-0.2 5.5-0.6 17.1c-0.2 6.1 7.3 5 7.4 5z"/>
						</g>
						<g id="&lt;Group&gt;">
							<path id="&lt;Path&gt;" class="s1" d="m1448 1019.6q-0.2 0.2-0.3 0.4-5 8.7-16.7 8.3l6.8-17.4c3.5 0.3 8.2 1.2 10.1 3.6 1 1.2 1.2 2.9 0.1 5.1z"/>
						</g>
						<g id="&lt;Group&gt;">
							<path id="&lt;Path&gt;" class="s2" d="m1419.2 973.5c8.6-17.8 27.3-26.8 41.9-19.9 14.6 6.8 19.5 26.9 11 44.8-8.5 17.8-27.3 26.7-41.9 19.9-14.6-6.9-19.5-26.9-11-44.8z"/>
						</g>
						<g id="&lt;Group&gt;">
							<path id="&lt;Path&gt;" class="s3" d="m1419.2 1014.4q0 0-0.1 0c-0.3 0-8.9-1-13.7-7.9q-2.5-3.6-1.6-6.2c0.9-2.5 3.8-3.3 3.9-3.4 0.3 0 0.6 0.1 0.7 0.4 0 0.3-0.1 0.6-0.4 0.7-0.1 0-2.4 0.7-3.1 2.6q-0.8 2.1 1.4 5.2c4.5 6.5 12.9 7.5 12.9 7.5 0.4 0 0.6 0.3 0.6 0.6-0.1 0.3-0.3 0.5-0.6 0.5z"/>
						</g>
						<g id="&lt;Group&gt;">
							<g id="&lt;Group&gt;">
								<path id="&lt;Path&gt;" class="s1" d="m1464.7 966.8c-3.8 5.4-4.4 10.7-24.7 6.5q-3.9 0.6-2.5-2.7c1.3-3.2 8.2-6 7.5-10.8q-25.8 20.6-27.4 12.9c-1.7-7.7 1.4-28.7 16.8-35.2 15.3-6.4 47.9 6 48.8 17.5 1.4 17.1-15.3 7.2-18.5 11.8z"/>
							</g>
						</g>
						<g id="&lt;Group&gt;">
							<g id="&lt;Group&gt;">
								<path id="&lt;Path&gt;" class="s1" d="m1493.8 989q-7.3 24.6-30.7 21.9 3.8-4.4 4.2-7.1c0.9-6.3-1-14.6 0.3-17.4 1.9-3.9 1.3-5.8-3-10.6-4.2-4.7 4.6-8.7 6-12.4q1.3-3.8 10.2-2c6.1 0.4 17.7 11.7 13 27.6z"/>
							</g>
						</g>
						<g id="&lt;Group&gt;">
							<path id="&lt;Path&gt;" class="s2" d="m1469.3 1003c-4.4 1.4-8.7-0.2-9.7-3.7-1-3.5 1.7-7.5 6.1-9 4.3-1.4 8.7 0.3 9.6 3.8 1 3.5-1.7 7.5-6 8.9z"/>
						</g>
						<g id="&lt;Group&gt;">
							<path id="&lt;Path&gt;" class="s3" d="m1462.7 1026.8q-0.5 0-1 0c-1.7-0.3-5.7-1.9-5.6-10.6 0.1-15.2 11-16.2 11.1-16.2 0.3 0 0.6 0.3 0.7 0.6 0 0.3-0.3 0.6-0.6 0.7-0.4 0-9.9 0.9-10 14.9-0.1 5.5 1.6 8.8 4.6 9.3 3.2 0.6 7.1-2.1 8.2-5.6 2-6.4-1-13.1-1.1-13.1-0.1-0.3 0-0.7 0.3-0.9 0.3-0.1 0.7 0 0.8 0.3 0.2 0.3 3.4 7.2 1.2 14.1-1.2 3.7-5 6.5-8.6 6.5z"/>
						</g>
						<g id="&lt;Group&gt;">
							<g id="&lt;Group&gt;">
								<path id="&lt;Path&gt;" class="s1" d="m1496.5 966.6c-3.9-5.6-9.7-4.7-10-4.7-0.4 0.1-0.8-0.2-0.8-0.6-0.1-0.4 0.2-0.8 0.6-0.9 0.3 0 7-1 11.4 5.4 0.3 0.3 0.2 0.8-0.2 1q-0.2 0.2-0.5 0.1-0.3 0-0.5-0.3z"/>
							</g>
						</g>
						<g id="&lt;Group&gt;">
							<g id="&lt;Group&gt;">
								<path id="&lt;Path&gt;" class="s1" d="m1485.6 958.6c-0.3-0.2-0.5-0.6-0.3-1 0.5-1.1 1.8-4.5 1-6.3-0.2-0.3 0-0.8 0.3-0.9 0.4-0.2 0.9-0.1 1 0.3 1.3 2.8-0.9 7.4-1 7.6-0.1 0.3-0.5 0.5-0.8 0.4q-0.1 0-0.2-0.1z"/>
							</g>
						</g>
						<g id="&lt;Group&gt;">
							<g id="&lt;Group&gt;">
								<path id="&lt;Path&gt;" class="s12" d="m1424.7 1003.9q8.7 3.4 18.5 3.7-2.5 8.8-12.2 5.8-5.6-1.7-6.3-9.5z"/>
							</g>
							<g id="&lt;Group&gt;">
								<path id="&lt;Path&gt;" class="s8" d="m1443.2 1007.6q-7.2 2.5-12.1 0.6-4.9-1.8-6.4-4.3 6.9 2.6 18.5 3.7z"/>
							</g>
							<g id="&lt;Group&gt;">
								<g id="&lt;Group&gt;">
									<path id="&lt;Path&gt;" class="s6" d="m1446.3 988.9q-0.3-0.1-0.3-0.5c0-0.3 0.3-0.6 0.6-0.6 0.2 0 4.9-0.5 6.9 4.5 0.1 0.3 0 0.7-0.3 0.8-0.3 0.1-0.6 0-0.8-0.3-2-2.8-5.6-3.8-5.8-3.8q-0.2 0-0.3-0.1z"/>
								</g>
							</g>
							<g id="&lt;Group&gt;">
								<g id="&lt;Group&gt;">
									<path id="&lt;Path&gt;" class="s6" d="m1422 983.2q-0.3-0.1-0.5-0.4c-0.1-0.3 0-0.6 0.3-0.8 0.2-0.1 4.1-2.6 8.2 1 0.2 0.2 0.2 0.6 0 0.8-0.2 0.3-0.5 0.3-0.9 0.1-3-1.6-6.6-0.9-6.7-0.8q-0.2 0.1-0.4 0.1z"/>
								</g>
							</g>
							<g id="&lt;Group&gt;">
								<g id="&lt;Group&gt;">
									<path id="&lt;Compound Path&gt;" fill-rule="evenodd" class="s10" d="m1413.1 1003c-3.3-2.8-5-8.3-4.7-14.6 0.6-10.3 6.6-19.7 13.3-21 2.6-0.6 4.9 0.1 6.9 1.8 3.3 2.8 5.1 8.3 4.7 14.6-0.5 10.3-6.5 19.7-13.3 21.1-1.5 0.3-3 0.2-4.3-0.4q-1.4-0.5-2.6-1.5zm19-19.2c0.4-6-1.3-11.1-4.3-13.7-1.7-1.4-3.7-2-5.8-1.6-6.3 1.2-11.8 10.2-12.4 20-0.3 5.9 1.3 11 4.3 13.6 1.7 1.4 3.8 2 5.9 1.6 6.3-1.2 11.8-10.2 12.3-19.9z"/>
								</g>
							</g>
							<g id="&lt;Group&gt;" style="opacity: .3">
								<path id="&lt;Path&gt;" class="s8" d="m1465.1 989c-1.3 9.6-8.2 18-15.4 18.6-7.2 0.6-12-6.8-10.6-16.4 1.4-9.7 8.3-18.1 15.5-18.7 7.2-0.6 11.9 6.8 10.5 16.5z"/>
							</g>
							<g id="&lt;Group&gt;" style="opacity: .3">
								<path id="&lt;Path&gt;" class="s8" d="m1433.3 984.7c-1.4 9.7-7.8 18.4-14.4 19.4-6.6 1-10.8-6.1-9.4-15.9 1.3-9.7 7.8-18.4 14.4-19.4 6.5-1 10.8 6.1 9.4 15.9z"/>
							</g>
							<g id="&lt;Group&gt;">
								<g id="&lt;Group&gt;">
									<path id="&lt;Compound Path&gt;" fill-rule="evenodd" class="s10" d="m1441.1 1004.5c-3.2-3.3-4.5-8.7-3.7-14.8 1.4-10.3 9-19.3 16.9-19.9 3.1-0.2 6 0.9 8.2 3.2 3.2 3.4 4.6 8.8 3.7 14.8-1.4 10.4-8.9 19.3-16.8 19.9q-2.4 0.2-4.5-0.6-2.1-0.8-3.8-2.6zm13.2-33.5c-7.3 0.6-14.4 9-15.7 18.9-0.8 5.6 0.5 10.8 3.4 13.8 2 2 4.5 3 7.3 2.8 7.3-0.6 14.4-9 15.7-18.9 0.8-5.6-0.5-10.7-3.4-13.8q-1.5-1.5-3.4-2.3-1.8-0.6-3.9-0.5z"/>
								</g>
							</g>
							<g id="&lt;Group&gt;">
								<g id="&lt;Group&gt;">
									<path id="&lt;Path&gt;" class="s10" d="m1430.2 986.8c-0.3-0.5 0.1-1.2 0.7-1.4 0.2 0 4.7-1.6 10 1.8 0.5 0.3 0.7 1 0.4 1.5-0.4 0.5-1.1 0.7-1.6 0.4-4.4-2.7-8-1.6-8.1-1.6q-0.4 0.2-0.8 0c-0.3-0.1-0.5-0.3-0.6-0.7z"/>
								</g>
							</g>
							<g id="&lt;Group&gt;">
								<g id="&lt;Group&gt;">
									<path id="&lt;Path&gt;" class="s6" d="m1427.6 992.2c-0.1-0.1-2.6-2.6-5.9-2.8-0.3-0.1-0.6-0.2-0.6-0.5-0.1-0.4 0.1-0.7 0.5-0.7 5.1-0.8 7 3.3 7.1 3.5 0.1 0.3 0 0.6-0.3 0.8q-0.2 0.1-0.5 0-0.2-0.1-0.3-0.3z"/>
								</g>
							</g>
							<g id="&lt;Group&gt;">
								<g id="&lt;Group&gt;">
									<path id="&lt;Path&gt;" class="s6" d="m1442.5 996.5q-0.3-0.1-0.4-0.4c-0.1-0.3 0.1-0.6 0.4-0.7 0.2-0.1 4.3-1.9 7.6 2 0.2 0.3 0.2 0.7 0 0.9-0.3 0.2-0.6 0.1-0.9-0.1-2.6-1.9-6.2-1.8-6.3-1.7q-0.2 0.1-0.4 0z"/>
								</g>
							</g>
						</g>
					</g>
				</g>
			</g>
			<g id="&lt;Group&gt;">
				<g id="&lt;Group&gt;">
					<path id="&lt;Path&gt;" class="s2" d="m1122.2 750.9c-4.8-4.6-12.4-15.9-17.1-20.6-2.1-2-8.6-9.3-6.8-11.6 1.5-2.1 9.3 1.3 12.9 3.4-3.6-18.9 1.7-53.9 9.9-9q0 0 0.1 0c-0.7-4.1-4-33.7 1.7-32.5 5.1 1 7.9 24.2 9.1 30.9q0.1-0.1 0.2-0.1c-0.7-6.8-3.7-26.5 1.5-26.3q5.1 0.3 10.9 26.2-3.7-24.2 2.1-19.4c1.3 1.1 5.3 14.7 6.1 22.8q0 0 0 0c0.2 1.7 0.3 3.2 0.4 4.4q0.2 1.3 0 2.5 0.4 13.7-1.6 22.6-0.4 10.8-12.2 12.8c-7.5 1.3-15.1-4.1-17.2-6.1z"/>
				</g>
				<g id="&lt;Group&gt;">
					<path id="&lt;Path&gt;" class="s1" d="m955.5 1205.4q-28.2-10.4-36.2-5.5c-7.9 4.9-24.9 23.3-26.2 11.1-0.8-7.1 16.3-25.8 20.4-31.6 4.1-5.7 5.4-12.9 12.4-14.5q7.6-1.7 40.4 27.4-3.1 2.9-6.2 7.5-4.4 6.6-4.6 5.6z"/>
				</g>
				<g id="&lt;Group&gt;">
					<path id="&lt;Path&gt;" class="s11" d="m1160.3 1339.1c-21.4 0-69.1-23.4-113.9-51.7-40.1-25.3-77.7-54.5-91.6-74.1-6.9-9.7 8.9-25.7 16.4-29.1 21.1-9.5 54.4 15.2 96.4 32.3q36.2 14.7 66.3 30z"/>
				</g>
				<g id="&lt;Group&gt;">
					<path id="&lt;Path&gt;" class="s11" d="m1160.3 1339.1c-21.4 0-69.1-23.4-113.9-51.7l21.2-70.9q36.2 14.7 66.3 30z"/>
				</g>
				<g id="&lt;Group&gt;">
					<path id="&lt;Path&gt;" class="s1" d="m881.5 1257.9q-29.5-6.1-36.6-0.1c-7.1 6-21.2 26.8-24.3 14.8-1.8-6.8 12.2-27.9 15.4-34.2 3.2-6.3 3.5-13.6 10.1-16.2q7.3-2.8 44.1 21.1-2.6 3.4-5 8.3-3.4 7.2-3.7 6.3z"/>
				</g>
				<g id="&lt;Group&gt;">
					<path id="&lt;Path&gt;" class="s9" d="m1055.8 1270.7l-5.8 79.4c-39.7 6-154.9-50.8-180-85.6-6.2-8.5 4.3-25.4 15.9-29.5q21.6-7.6 169.9 35.7z"/>
				</g>
				<g id="&lt;Group&gt;">
					<path id="&lt;Path&gt;" class="s10" d="m954.7 973q-0.3-37.2 65.1-54.6c50.4-13.4 94.3-4 115.6 36.2 18.5 35.1 24.5 67.3 35.3 156.9q-145.3 1.1-183.3 38.8 1.8-79.2-29.8-156.2c-3.3-7.8-3.6-14.3-2.9-21.1z"/>
				</g>
				<g id="&lt;Group&gt;">
					<g id="&lt;Group&gt;">
						<path id="&lt;Path&gt;" class="s10" d="m860.5 830c22.5 43.1 111.9 99 139.6 95.1 6-0.9-37.7 80.3-39.2 77.5-7.6-14.2-13.4-20-25.6-29.1-40-29.9-94.3-69.8-110.2-112.7z"/>
					</g>
				</g>
				<g id="&lt;Group&gt;">
					<path id="&lt;Path&gt;" class="s10" d="m1033.2 916.6q90.8-56.2 85.2-159c-0.4-6.2 4.7-11.4 11.1-11.2l19.9 0.6c3.6 0.1 6.7 2.6 7.4 6.2 3.9 18.8 12.7 80.4-16.5 166.6-3 8.9-9.6 22.9 1.5 47.9z"/>
				</g>
				<g id="&lt;Group&gt;">
					<path id="&lt;Path&gt;" class="s1" d="m1072.9 1105.6c51-10.1 96.1-2.9 97.8 5.9 1.7 8.7-37.7 24.3-88.6 34.4-50.9 10.1-93 13.1-94.7 4.4-1.7-8.8 34.6-34.6 85.5-44.7z"/>
				</g>
				<g id="&lt;Group&gt;">
					<g id="&lt;Group&gt;">
						<path id="&lt;Path&gt;" class="s9" d="m1102 1284.9c14.4-47.6-23.4-99.4-23-131.3q-0.8-30.1 12.8-31.8 44.6-5.4 77.1-6.1c1 1.3 59.9 94.8 20.1 202.4-21.2 57.3-91.2-19.4-87-33.2z"/>
					</g>
				</g>
				<g id="&lt;Group&gt;">
					<g id="&lt;Group&gt;">
						<path id="&lt;Path&gt;" class="s9" d="m1000.7 1280.8c26.6-42.1-12.3-95.2-3.3-125.9q14.4-18.2 68.2-31.8 70.9-17.9 103.3-7.4c0.5 1.4-22.6 107.3-79 197.1-4.6 7.4-9 15.8-14.1 22.9-35.7 49.7-82.8-42.7-75.1-54.9z"/>
					</g>
				</g>
				<g id="&lt;Group&gt;">
					<path id="&lt;Path&gt;" class="s1" d="m1089.9 1313.3q-0.1 0-0.2 0c-0.3-0.2-0.4-0.5-0.2-0.8 11.3-20 33-76.5 33.9-147.7 0-0.3 0.2-0.5 0.5-0.5 0.4 0 0.6 0.2 0.6 0.5-0.8 71.5-22.7 128.2-34.1 148.2-0.1 0.2-0.3 0.3-0.5 0.3z"/>
				</g>
				<g id="&lt;Group&gt;">
					<g id="&lt;Group&gt;">
						<path id="&lt;Path&gt;" class="s2" d="m1017 909.9l-1.8-18.9-0.5-5.4-2.9-32.3 13 28 7.8 16.8 2.5 5.3c1.6 3.6 4.2 3.5 8.3 5.5 1.6 0.9 5 1.3-1.6 8.1-8.2 8.5-22.8 14.1-33.6 8.2 0 0 9.3-9.2 8.8-15.3z"/>
					</g>
					<g id="&lt;Group&gt;">
						<g id="&lt;Group&gt;">
							<path id="&lt;Path&gt;" class="s1" d="m1030.3 833.1q4.7 6.2 6.5 15.6 1.8 9.5-16-8.2z"/>
						</g>
						<g id="&lt;Group&gt;">
							<path id="&lt;Path&gt;" class="s2" d="m1031.5 893.3c-13.3 7.6-31.5 0.8-40.7-15.1-9.2-15.9-5.9-34.9 7.4-42.5 13.3-7.5 31.5-0.8 40.7 15.1 9.2 15.9 5.9 34.9-7.4 42.5z"/>
						</g>
						<g id="&lt;Group&gt;">
							<path id="&lt;Path&gt;" class="s1" d="m970.4 877.2c-22.3-19.8-1.3-41 13-46.3 11-4.1 9.3-15.3 23.3-18.9 7.4-1.9 8.1 8.5 13.9 1.8 5.8-6.8 15.5-4.6 17.1 3.9 1.6 8.2-4.5 20.9-19.4 26.3-11.7 4.3-14 7.6-14.9 12.6-0.5 2.9-2.4 5.4-5 6.7l-11.9 6.4z"/>
						</g>
						<g id="&lt;Group&gt;">
							<g id="&lt;Group&gt;">
								<path id="&lt;Path&gt;" class="s6" d="m1015.4 862.9c-0.1 0-2.9 1.9-3.8 4.8-0.1 0.3-0.3 0.6-0.6 0.6-0.3-0.1-0.5-0.3-0.5-0.6 0.2-4.9 4.4-5.8 4.6-5.9 0.3-0.1 0.6 0.1 0.7 0.4q0 0.3-0.1 0.5-0.1 0.1-0.3 0.2z"/>
							</g>
						</g>
						<g id="&lt;Group&gt;">
							<path id="&lt;Path&gt;" class="s6" d="m1016.1 867.2c0.8-0.6 2-0.2 2.9 0.9 0.8 1 0.8 2.4 0.1 3-0.8 0.5-2.1 0.2-2.9-0.9-0.8-1-0.9-2.4-0.1-3z"/>
						</g>
						<g id="&lt;Group&gt;">
							<g id="&lt;Group&gt;">
								<path id="&lt;Path&gt;" class="s6" d="m1034 853.3c-0.1 0-2.8 0.3-4.2 2.3-0.1 0.2-0.4 0.3-0.6 0.2-0.3-0.2-0.4-0.5-0.3-0.7 1.3-4 4.9-2.8 5.1-2.8 0.2 0.1 0.4 0.3 0.4 0.6q0 0.3-0.1 0.4-0.1 0.1-0.3 0z"/>
							</g>
						</g>
						<g id="&lt;Group&gt;">
							<path id="&lt;Path&gt;" class="s6" d="m1032.8 857.7c0.9-0.2 2 0.6 2.3 1.9 0.4 1.3-0.1 2.5-1 2.8-1 0.2-2-0.6-2.4-1.9-0.3-1.3 0.1-2.5 1.1-2.8z"/>
						</g>
						<g id="&lt;Group&gt;">
							<path id="&lt;Path&gt;" class="s1" d="m1000.9 861.5q-17.2 17-1.6 27-12.7 3.6-28.9-11.3 10.2-10.9 30.5-15.7z"/>
						</g>
						<g id="&lt;Group&gt;">
							<path id="&lt;Path&gt;" class="s2" d="m986.8 874c0.5-2.9 3.6-4.8 6.9-4.2 3.2 0.6 5.5 3.4 5 6.3-0.6 2.9-3.6 4.8-6.9 4.3-3.3-0.6-5.5-3.4-5-6.4z"/>
						</g>
						<g id="&lt;Group&gt;">
							<path id="&lt;Path&gt;" class="s1" d="m1000.9 861.5q4.7 16.1 9.1 17.7c4.3 1.6 25.7-5.7 33.9-13.4 4.3 9.9 0.9 21.5-8.3 27.1-3 1.9-6.4 3.3-9.9 4.1-7.3 1.6-15.1 1.5-20.5-3.7q-1.7-1.5-4.1-14.3-1.9-7.2-7.4-9.2 2.9-6 7.2-8.3z"/>
						</g>
						<g id="&lt;Group&gt;">
							<path id="&lt;Path&gt;" class="s8" d="m1037.7 883.9q-8.2 5.2-12.8-2.3 9.1-2.7 16.2-8.1 1.3 7.4-3.4 10.4z"/>
						</g>
						<g id="&lt;Group&gt;">
							<path id="&lt;Path&gt;" class="s1" d="m1016.5 813.6c-2.5 0-3.6-2-3.6-2l0.7-0.4c0.1 0.1 1.5 2.7 4.8 1.2l0.3 0.7c-0.8 0.4-1.6 0.5-2.2 0.5z"/>
						</g>
						<g id="&lt;Group&gt;">
							<path id="&lt;Path&gt;" class="s8" d="m1020.8 838.2l-0.3-0.3c0.2-0.1 13.9-11 11.2-19.3-0.7-2.3-1.7-3.6-3-4.1-2.1-0.7-4.7 1.1-6.9 2.7q-0.5 0.4-1 0.7l-0.3-0.3q0.5-0.3 1.1-0.7c2.3-1.6 4.9-3.5 7.2-2.7 1.4 0.5 2.5 1.9 3.3 4.3 2.7 8.5-10.7 19.3-11.3 19.7z"/>
						</g>
						<g id="&lt;Group&gt;">
							<path id="&lt;Path&gt;" class="s8" d="m978.5 836.2v-0.3c16-4.2 19.8-15.7 19.9-15.8l0.3 0.1c0 0.1-3.9 11.8-20.2 16z"/>
						</g>
					</g>
				</g>
				<g id="&lt;Group&gt;">
					<path id="&lt;Path&gt;" class="s1" d="m850.6 855c-11.4 12.6-21.6 10.7-25.5 5.8-3.9-4.8 1.2-15.3 11.3-23.4 10.2-8 20.2-12.2 24.1-7.4 3.9 4.9-1.2 15.4-9.9 25z"/>
				</g>
				<g id="&lt;Group&gt;">
					<path id="&lt;Path&gt;" class="s13" d="m1038.4 938.5c-1.1 3-34.5-9.9-35.7-13.4-1.2-3.6 11.1-19.8 15.4-15.3q4.3 4.5 20.8 5.9c4.5 2.5 0.7 19.8-0.5 22.8z"/>
				</g>
				<g id="&lt;Group&gt;">
					<path id="&lt;Path&gt;" class="s13" d="m1038.9 915.7q0.7-6.2-1.1-8.9-1.5-2.4 0.9-2.8c2.3-0.5 17.1 4.9 18.9 7.3 1.7 2.3 5.2 14.6 1.4 16.6-3.8 2-17-8.8-18.5-9.8q-1.5-1-1.6-2.4z"/>
				</g>
				<g id="&lt;Group&gt;">
					<ellipse id="&lt;Path&gt;" class="s1" cx="1088.8" cy="1061.2" rx="3.8" ry="3.9"/>
				</g>
				<g id="&lt;Group&gt;">
					<ellipse id="&lt;Path&gt;" class="s1" cx="1076.1" cy="1011.5" rx="3.8" ry="3.9"/>
				</g>
				<g id="&lt;Group&gt;">
					<ellipse id="&lt;Path&gt;" class="s1" cx="1064.4" cy="974.6" rx="3.8" ry="3.9"/>
				</g>
				<g id="&lt;Group&gt;">
					<path id="&lt;Path&gt;" class="s2" d="m841.6 850.8q-11.1 4.2-17.1-4.9-6.3-6.6-12.9-18.6-0.8-0.9-1.4-2.2c-0.4-1-1.1-2.4-1.8-3.9q0 0 0 0c-3.5-7.4-7.1-21.1-6.5-22.8q2.5-7 11.7 15.7-8.3-25.2-4-28c4.3-2.9 11.9 15.6 14.8 21.8q0.1 0 0.2-0.1c-2.4-6.3-11.9-27.6-8.1-31.1 4.3-3.9 16.7 23.2 18.2 27q0.1 0 0.1 0c-16.1-42.7 6.5-15.3 13.1 2.7 2-3.6 7.1-10.4 9.4-9.5 2.7 1.2 0.9 10.7 0.1 13.5-1.7 6.5-2.4 20-4.2 26.4-0.7 2.8-4.5 11.3-11.6 14z"/>
				</g>
			</g>
			<g id="&lt;Group&gt;">
				<g id="&lt;Group&gt;">
					<path id="&lt;Path&gt;" class="s4" d="m1227.6 289.4l-135.6 56.5-21.8-52.4 135.5-56.6z"/>
				</g>
				<g id="&lt;Group&gt;">
					<path id="&lt;Compound Path&gt;" fill-rule="evenodd" class="s14" d="m1089.3 350.4l-21.9-50.4c-2.2-4.9 0.2-10.5 5.3-12.5l128.9-51.7c2-0.8 4.3 0.1 5.2 2l22.8 49.3c0.9 1.9 0.1 4.2-1.9 5.1l-133 60.2c-2 1-4.5 0.1-5.4-1.9zm-15.7-54.1l18.1 44.7c0.9 2.1 3.3 3.1 5.3 2.2l124.3-53.5c2-0.8 3-3.2 2.1-5.2l-17.2-41.4c-0.9-2-3.2-3-5.2-2.2l-125.2 50.2c-2.1 0.8-3.1 3.2-2.2 5.2z"/>
				</g>
				<g id="&lt;Group&gt;">
					<path id="&lt;Path&gt;" class="s14" d="m1129.1 292.6c-0.5-11.7 4.5-24.5 22.6-25.3 11.7-0.5 22.2 9.1 23.9 20.7 2.1 14.1-6.2 23.1-23.1 25.6-11.6 1.8-22.7-6.3-23.4-21z"/>
				</g>
				<g id="&lt;Group&gt;">
					<path id="&lt;Path&gt;" class="s14" d="m1107.8 305.8c-0.2-4.4 1.7-9.2 8.5-9.5 4.4-0.2 8.4 3.4 9 7.8 0.8 5.3-2.3 8.7-8.7 9.7-4.4 0.6-8.6-2.4-8.8-8z"/>
				</g>
				<g id="&lt;Group&gt;">
					<path id="&lt;Path&gt;" class="s14" d="m1179.7 277.1c-0.2-4.4 1.7-9.2 8.5-9.5 4.4-0.2 8.4 3.4 9 7.8 0.8 5.3-2.3 8.7-8.7 9.6-4.3 0.7-8.5-2.4-8.8-7.9z"/>
				</g>
				<g id="&lt;Group&gt;">
					<g id="&lt;Group&gt;">
						<path id="&lt;Compound Path&gt;" class="s4" d="m1156.1 309l-0.7-2c-0.2-0.7-1-1.1-1.7-1-1.8 0.4-3.6 0.5-5.1 0.3-0.8-0.1-1.3-0.8-1.3-1.5v-0.5c0-0.9 0.8-1.6 1.7-1.5 1.7 0.2 3.7 0.1 5.6-0.5 3.2-1.1 4-3.8 3.1-6.5-0.9-2.6-2.4-3.6-6.3-3.8-5.3-0.4-10.6-1-12-5.1-1.2-3.5-0.2-7.9 5.1-9.9 0.6-0.2 0.8-1 0.6-1.7l-0.7-2.2c-0.3-0.8 0.1-1.6 0.9-1.9 0.8-0.2 1.6 0.2 1.9 1l0.6 1.8c0.3 0.7 1 1.1 1.7 1 1.5-0.3 2.8-0.4 3.9-0.3 0.8 0.1 1.3 0.8 1.3 1.6v0.5c0 0.8-0.8 1.5-1.6 1.4-1.2-0.1-2.8-0.1-4.7 0.6-3.6 1.2-4.2 3.8-3.5 5.7 0.8 2.4 3.3 1.8 7.9 2.2 5.4 0.4 9.3 2.1 11.1 6.2 1.9 4.3 0.3 8.3-5.1 11.1-0.6 0.3-0.8 1.1-0.6 1.7l0.8 2.4c0.2 0.7-0.2 1.6-1 1.9-0.8 0.2-1.6-0.2-1.9-1z"/>
					</g>
				</g>
			</g>
			<g id="&lt;Group&gt;">
				<g id="&lt;Group&gt;">
					<path id="&lt;Path&gt;" class="s4" d="m1799.5 364.9l75.8 125.8-48.7 29.3-75.8-125.8z"/>
				</g>
				<g id="&lt;Group&gt;">
					<path id="&lt;Compound Path&gt;" fill-rule="evenodd" class="s14" d="m1880.2 492.7l-46.7 29.1c-4.5 2.8-10.4 1.3-13.1-3.4l-70.1-120c-1.1-1.9-0.5-4.3 1.2-5.4l45.4-29.8c1.8-1.2 4.2-0.7 5.4 1.2l79.1 122.6c1.2 1.9 0.7 4.5-1.2 5.7zm-51.1 23.5l41.5-24.5c2-1.2 2.6-3.7 1.4-5.6l-71.1-115.1c-1.2-1.8-3.6-2.4-5.5-1.3l-38.4 23.1c-1.9 1.2-2.5 3.6-1.4 5.5l68 116.5c1.1 1.9 3.6 2.5 5.5 1.4z"/>
				</g>
				<g id="&lt;Group&gt;">
					<path id="&lt;Path&gt;" class="s14" d="m1817.2 461.8c-11.6 2.2-24.9-0.9-28.4-18.6-2.2-11.5 5.7-23.3 17-26.7 13.7-4.1 23.8 2.7 28.7 19 3.4 11.3-2.9 23.5-17.3 26.3z"/>
				</g>
				<g id="&lt;Group&gt;">
					<path id="&lt;Path&gt;" class="s14" d="m1833.4 481c-4.4 0.8-9.4-0.4-10.7-7-0.9-4.4 2.1-8.8 6.4-10.1 5.1-1.6 8.9 1 10.8 7.2 1.3 4.2-1.1 8.8-6.5 9.9z"/>
				</g>
				<g id="&lt;Group&gt;">
					<path id="&lt;Path&gt;" class="s14" d="m1794.4 414c-4.4 0.9-9.4-0.3-10.7-7-0.8-4.3 2.2-8.8 6.4-10 5.2-1.6 9 1 10.8 7.1 1.3 4.3-1.1 8.9-6.5 9.9z"/>
				</g>
				<g id="&lt;Group&gt;">
					<g id="&lt;Group&gt;">
						<path id="&lt;Compound Path&gt;" class="s4" d="m1829.4 432.7l-1.8 1c-0.7 0.3-1 1.1-0.8 1.9 0.7 1.7 1 3.5 1 5 0 0.7-0.5 1.3-1.3 1.4l-0.5 0.1c-0.9 0.1-1.7-0.5-1.7-1.4 0-1.8-0.4-3.7-1.3-5.5-1.6-3.1-4.3-3.4-6.9-2.1-2.4 1.2-3.2 2.9-2.9 6.7 0.5 5.3 0.7 10.7-3.2 12.7-3.3 1.7-7.8 1.3-10.5-3.6-0.3-0.6-1.2-0.7-1.8-0.4l-2.1 1.1c-0.7 0.4-1.6 0.1-2-0.7-0.4-0.7-0.1-1.6 0.7-2l1.7-0.9c0.7-0.3 1-1.1 0.7-1.8-0.5-1.4-0.7-2.7-0.8-3.8 0-0.8 0.6-1.4 1.3-1.5l0.5-0.1c0.9-0.1 1.6 0.6 1.7 1.4 0.1 1.2 0.3 2.8 1.3 4.6 1.6 3.3 4.3 3.5 6.1 2.6 2.3-1.2 1.3-3.6 1-8.1-0.4-5.4 0.8-9.6 4.5-11.9 4-2.5 8.2-1.6 11.8 3.4 0.4 0.5 1.2 0.6 1.8 0.3l2.2-1.1c0.7-0.4 1.6-0.1 2 0.7 0.4 0.7 0.1 1.6-0.7 2z"/>
					</g>
				</g>
			</g>
			<g id="&lt;Group&gt;">
				<g id="&lt;Group&gt;">
					<path id="&lt;Path&gt;" class="s4" d="m1629.7 319.9l103.2-104.5 40.5 39.9-103.3 104.5z"/>
				</g>
				<g id="&lt;Group&gt;">
					<path id="&lt;Compound Path&gt;" fill-rule="evenodd" class="s14" d="m1733.7 210.1l39.7 38.1c3.9 3.7 3.8 9.8-0.1 13.6l-99 97.5c-1.5 1.5-4 1.6-5.5 0.1l-40.1-36.6c-1.6-1.5-1.6-3.9-0.1-5.5l99.3-106.9c1.6-1.7 4.2-1.8 5.8-0.3zm35.4 43.8l-34-34.2c-1.6-1.6-4.2-1.6-5.8 0l-94 97.3c-1.5 1.6-1.5 4.1 0.1 5.6l31.9 31.6c1.6 1.5 4.1 1.5 5.6 0l96.2-94.6c1.5-1.6 1.6-4.1 0-5.7z"/>
				</g>
				<g id="&lt;Group&gt;">
					<path id="&lt;Path&gt;" class="s14" d="m1719.3 278.8c5 10.7 5.3 24.4-11 32.1-10.7 5-24 0.2-30.1-9.8-7.4-12.3-3.2-23.8 11.4-32.6 10-6.1 23.4-2.9 29.7 10.3z"/>
				</g>
				<g id="&lt;Group&gt;">
					<path id="&lt;Path&gt;" class="s14" d="m1733.9 258.4c1.9 4 2 9.2-4.2 12.1-4 1.9-9 0.1-11.3-3.7-2.8-4.6-1.2-8.9 4.3-12.3 3.8-2.3 8.8-1.1 11.2 3.9z"/>
				</g>
				<g id="&lt;Group&gt;">
					<path id="&lt;Path&gt;" class="s14" d="m1678.6 312.7c1.9 4 2 9.2-4.1 12.1-4 1.9-9.1 0.1-11.4-3.7-2.7-4.7-1.2-9 4.3-12.3 3.8-2.3 8.9-1.1 11.2 3.9z"/>
				</g>
				<g id="&lt;Group&gt;">
					<g id="&lt;Group&gt;">
						<path id="&lt;Compound Path&gt;" class="s4" d="m1688.1 274.1l1.4 1.6c0.5 0.6 1.3 0.7 2 0.2 1.5-1 3.1-1.8 4.6-2.1 0.7-0.2 1.5 0.2 1.7 0.8l0.2 0.5c0.4 0.9-0.1 1.8-1 2-1.6 0.5-3.4 1.4-4.9 2.7-2.6 2.2-2.2 5-0.4 7.1 1.8 2.1 3.6 2.4 7.3 1.2 5-1.8 10.2-3.3 13 0 2.5 2.8 3.3 7.2-0.9 11.1-0.5 0.4-0.3 1.3 0.1 1.8l1.6 1.7c0.5 0.6 0.4 1.6-0.2 2.1-0.6 0.6-1.5 0.5-2.1-0.1l-1.3-1.4c-0.5-0.6-1.3-0.7-1.9-0.3-1.3 0.9-2.4 1.4-3.5 1.7-0.7 0.2-1.5-0.1-1.8-0.9l-0.2-0.4c-0.3-0.8 0.1-1.7 1-2 1.1-0.4 2.6-1 4.1-2.4 2.8-2.4 2.3-5.1 1-6.5-1.7-2-3.8-0.5-8.1 1-5.2 1.7-9.5 1.6-12.7-1.5-3.4-3.2-3.5-7.5 0.4-12.2 0.5-0.5 0.4-1.3-0.1-1.8l-1.6-1.9c-0.6-0.6-0.5-1.5 0.1-2.1h0.1c0.6-0.6 1.5-0.5 2.1 0.1z"/>
					</g>
				</g>
			</g>
			<g id="&lt;Group&gt;">
				<g id="&lt;Group&gt;">
					<path id="&lt;Path&gt;" class="s14" d="m778.5 300.5c16.7 7.3 91 38.2 161.1 40 2.1 0 3.6 1.9 3.1 3.9l-12.7 51.2c-0.3 1.3-1.4 2.3-2.8 2.4-13.5 1.4-86.5 5.9-164.3-40.6-1.2-0.7-1.8-2.2-1.4-3.5l12.6-51.3c0.5-1.9 2.6-2.9 4.4-2.1z"/>
				</g>
				<g id="&lt;Group&gt;">
					<path id="&lt;Path&gt;" class="s4" d="m785.6 310.7c16.5 6.7 81.8 31.9 142.9 35.5 2.4 0.1 4 2.3 3.5 4.5l-9.2 37.3c-0.4 1.6-1.8 2.8-3.5 2.8-13.7 0.7-77.1 1.3-146-36.1-1.5-0.8-2.3-2.5-1.9-4.2l9.3-37.3c0.5-2.2 2.9-3.4 4.9-2.5z"/>
				</g>
				<g id="&lt;Group&gt;">
					<path id="&lt;Path&gt;" class="s14" d="m829.3 352.8c2.6-10.6 14-17 25.4-14.2 11.4 2.8 18.4 13.7 15.8 24.4-2.6 10.7-14 17.1-25.4 14.3-11.3-2.9-18.4-13.8-15.8-24.5z"/>
				</g>
				<g id="&lt;Group&gt;">
					<path id="&lt;Path&gt;" class="s14" d="m807.2 345.9c0.9-4 5.2-6.4 9.4-5.3 4.3 1 6.9 5.1 5.9 9.1-1 4-5.2 6.3-9.4 5.3-4.3-1.1-6.9-5.1-5.9-9.1z"/>
				</g>
				<g id="&lt;Group&gt;">
					<path id="&lt;Path&gt;" class="s14" d="m876.3 362.9c0.9-3.9 5.2-6.3 9.4-5.3 4.2 1.1 6.9 5.2 5.9 9.1-1 4-5.2 6.4-9.4 5.3-4.3-1-6.9-5.1-5.9-9.1z"/>
				</g>
				<g id="&lt;Group&gt;">
					<g id="&lt;Group&gt;">
						<path id="&lt;Compound Path&gt;" class="s4" d="m843.7 371.4l0.5-1.7c0.2-0.5-0.1-1.2-0.6-1.4-1.4-0.7-2.6-1.5-3.4-2.4-0.4-0.4-0.5-1.1-0.1-1.6l0.3-0.3c0.4-0.6 1.3-0.6 1.8-0.1 1 1 2.3 1.9 3.8 2.4 2.6 0.9 4.4-0.5 5.1-2.6 0.7-2.1 0.2-3.5-2.1-5.5-3.2-2.8-6.3-5.8-5.2-9.1 1-2.9 3.7-5.2 8.1-3.8 0.5 0.1 1.1-0.3 1.2-0.8l0.6-1.8c0.2-0.6 0.9-1 1.6-0.7 0.6 0.2 0.9 0.9 0.7 1.5l-0.5 1.5c-0.2 0.5 0.1 1.2 0.6 1.4 1.1 0.6 2 1.2 2.6 1.8 0.5 0.4 0.5 1.1 0.1 1.6l-0.2 0.3c-0.5 0.5-1.3 0.6-1.8 0.1-0.7-0.6-1.8-1.4-3.3-1.9-2.8-1-4.5 0.4-5 1.9-0.7 2 1.3 2.8 4 5.3 3.2 2.9 4.8 5.9 4 9.4-0.9 3.6-3.8 5.4-8.7 4.6-0.5-0.1-1 0.3-1.2 0.8l-0.6 1.8c-0.3 0.7-0.9 1-1.6 0.8-0.6-0.2-1-0.9-0.7-1.5z"/>
					</g>
				</g>
			</g>
			<g id="&lt;Group&gt;">
				<g id="&lt;Group&gt;">
					<path id="&lt;Path&gt;" class="s14" d="m281.2 597.8c18.2-1.3 98.3-8.7 161.1-40 1.8-0.9 4 0.1 4.5 2.1l12.8 51.1c0.3 1.3-0.2 2.7-1.3 3.5-11.4 7.5-73.8 45.6-164.2 40.9-1.4 0-2.6-1-3-2.4l-12.8-51.2c-0.5-1.9 0.9-3.8 2.9-4z"/>
				</g>
				<g id="&lt;Group&gt;">
					<path id="&lt;Path&gt;" class="s4" d="m292.3 603.5c17.7-1.7 87.2-10 142.9-35.5 2.1-1 4.6 0.2 5.1 2.5l9.3 37.2c0.4 1.6-0.3 3.3-1.7 4.1-11.9 7-67.5 37.2-146 36.4-1.7 0-3.1-1.2-3.5-2.8l-9.4-37.3c-0.5-2.2 1-4.4 3.3-4.6z"/>
				</g>
				<g id="&lt;Group&gt;">
					<path id="&lt;Path&gt;" class="s14" d="m350.6 620.3c-2.7-10.6 4.4-21.6 15.7-24.4 11.4-2.9 22.8 3.5 25.4 14.2 2.7 10.6-4.3 21.6-15.7 24.4-11.4 2.9-22.7-3.5-25.4-14.2z"/>
				</g>
				<g id="&lt;Group&gt;">
					<path id="&lt;Path&gt;" class="s14" d="m327.8 624.6c-1-4 1.6-8.1 5.8-9.1 4.3-1.1 8.5 1.3 9.5 5.2 1 4-1.6 8.1-5.9 9.2-4.2 1-8.4-1.4-9.4-5.3z"/>
				</g>
				<g id="&lt;Group&gt;">
					<path id="&lt;Path&gt;" class="s14" d="m396.8 607.3c-1-4 1.6-8 5.9-9.1 4.2-1.1 8.4 1.3 9.4 5.3 1 4-1.6 8-5.8 9.1-4.3 1.1-8.5-1.3-9.5-5.3z"/>
				</g>
				<g id="&lt;Group&gt;">
					<g id="&lt;Group&gt;">
						<path id="&lt;Compound Path&gt;" class="s4" d="m371.9 630l-0.2-1.7c-0.1-0.6-0.7-1-1.3-1-1.5 0.1-2.9-0.1-4.1-0.5-0.6-0.2-0.9-0.8-0.8-1.3l0.1-0.5c0.1-0.7 0.8-1.1 1.5-0.9 1.4 0.4 2.9 0.6 4.5 0.3 2.7-0.4 3.7-2.4 3.3-4.7-0.3-2.1-1.4-3.1-4.4-3.9-4.2-0.9-8.3-2.1-8.9-5.5-0.4-3 0.9-6.3 5.4-7.2 0.6-0.1 0.8-0.8 0.7-1.3l-0.3-1.8c-0.1-0.7 0.4-1.3 1-1.4 0.7-0.1 1.3 0.3 1.4 1l0.2 1.5c0.1 0.6 0.7 1.1 1.3 1 1.2 0 2.2 0.1 3.1 0.4 0.6 0.1 0.9 0.7 0.8 1.4l-0.1 0.3c-0.1 0.7-0.8 1.1-1.4 1-1-0.3-2.3-0.5-3.9-0.2-2.9 0.5-3.7 2.5-3.5 4 0.3 2.1 2.4 2 6 2.8 4.2 1.1 7.1 3 7.9 6.4 1 3.7-0.8 6.7-5.5 8.2-0.5 0.1-0.8 0.7-0.7 1.3l0.3 1.9c0.1 0.7-0.3 1.3-1 1.4-0.7 0.1-1.3-0.3-1.4-1z"/>
					</g>
				</g>
			</g>
			<g id="&lt;Group&gt;">
				<g id="&lt;Group&gt;">
					<path id="&lt;Path&gt;" class="s14" d="m596.9 618.9c7.2 16.8 40.7 90 90.9 138.9 1.4 1.5 1.2 3.9-0.5 5l-44.1 29c-1.1 0.7-2.6 0.7-3.7-0.2-10.8-8.2-67.4-54.6-92.8-141.5-0.4-1.4 0.2-2.8 1.4-3.6l44.1-29c1.6-1.1 3.9-0.4 4.7 1.4z"/>
				</g>
				<g id="&lt;Group&gt;">
					<path id="&lt;Path&gt;" class="s4" d="m595.2 631.3c7.5 16.1 38.2 79 80.6 123.2 1.6 1.7 1.3 4.4-0.7 5.7l-32.1 21c-1.3 0.9-3.1 0.8-4.4-0.2-10.5-8.9-57.4-51.6-82.5-125.9-0.5-1.6 0.1-3.3 1.5-4.3l32.2-21.1c1.9-1.2 4.4-0.5 5.4 1.6z"/>
				</g>
				<g id="&lt;Group&gt;">
					<path id="&lt;Path&gt;" class="s14" d="m598.5 691.9c9.2-6.1 21.8-3 28.3 6.8 6.4 9.8 4.2 22.6-5 28.7-9.2 6-21.9 2.9-28.3-6.9-6.5-9.8-4.2-22.6 5-28.6z"/>
				</g>
				<g id="&lt;Group&gt;">
					<path id="&lt;Path&gt;" class="s14" d="m587 671.7c3.4-2.2 8.1-1.1 10.5 2.6 2.4 3.6 1.6 8.4-1.9 10.6-3.4 2.3-8.1 1.1-10.5-2.5-2.4-3.7-1.5-8.4 1.9-10.7z"/>
				</g>
				<g id="&lt;Group&gt;">
					<path id="&lt;Path&gt;" class="s14" d="m626 731.2c3.4-2.2 8.2-1.1 10.6 2.6 2.4 3.6 1.5 8.4-1.9 10.6-3.4 2.3-8.2 1.2-10.5-2.5-2.4-3.6-1.6-8.4 1.8-10.7z"/>
				</g>
				<g id="&lt;Group&gt;">
					<g id="&lt;Group&gt;">
						<path id="&lt;Compound Path&gt;" class="s4" d="m596.4 715.2l1.5-0.8c0.5-0.3 0.8-0.9 0.5-1.5-0.5-1.4-0.8-2.8-0.8-4 0-0.6 0.4-1.2 1-1.2l0.4-0.1c0.7-0.1 1.4 0.4 1.4 1.1 0 1.4 0.4 3 1.2 4.4 1.3 2.4 3.5 2.7 5.5 1.6 1.9-1.1 2.5-2.4 2.2-5.5-0.5-4.2-0.7-8.6 2.4-10.2 2.6-1.4 6.2-1.2 8.5 2.7 0.3 0.5 1 0.5 1.4 0.3l1.7-0.9c0.6-0.3 1.3-0.1 1.6 0.5 0.3 0.5 0.1 1.3-0.5 1.6l-1.4 0.7c-0.5 0.3-0.7 1-0.5 1.5 0.4 1.2 0.6 2.2 0.7 3 0.1 0.7-0.4 1.2-1 1.3l-0.4 0.1c-0.7 0.1-1.3-0.4-1.4-1.1-0.1-1-0.3-2.3-1.1-3.7-1.4-2.6-3.5-2.8-4.9-2-1.9 1-1.1 2.9-0.7 6.6 0.4 4.3-0.5 7.6-3.5 9.6-3.1 2.1-6.5 1.4-9.4-2.5-0.4-0.5-1-0.5-1.5-0.3l-1.7 1c-0.6 0.3-1.4 0.1-1.7-0.5v-0.1c-0.3-0.5-0.1-1.3 0.5-1.6z"/>
					</g>
				</g>
			</g>
			<g id="&lt;Group&gt;">
				<g id="&lt;Group&gt;">
					<path id="&lt;Path&gt;" class="s14" d="m491.2 288.4c18-3 97.1-17.9 156.7-54.9 1.7-1 4-0.3 4.7 1.7l17.5 49.7c0.5 1.3 0.1 2.7-1 3.6-10.6 8.5-69.2 52.3-159.7 56.1-1.4 0-2.7-0.8-3.2-2.2l-17.5-49.8c-0.6-1.8 0.6-3.9 2.5-4.2z"/>
				</g>
				<g id="&lt;Group&gt;">
					<path id="&lt;Path&gt;" class="s4" d="m502.8 293c17.5-3.4 85.9-18.1 138.9-48.6 2.1-1.2 4.6-0.3 5.4 1.9l12.8 36.3c0.5 1.5 0 3.2-1.4 4.2-11.1 8.1-63.8 43.3-141.9 49.8-1.7 0.2-3.3-0.8-3.8-2.4l-12.8-36.3c-0.7-2.1 0.6-4.4 2.8-4.9z"/>
				</g>
				<g id="&lt;Group&gt;">
					<path id="&lt;Path&gt;" class="s14" d="m562.4 304.4c-3.6-10.4 2.4-22 13.4-25.9 11.1-3.8 23 1.4 26.6 11.8 3.7 10.4-2.3 21.9-13.4 25.8-11 3.9-22.9-1.4-26.6-11.7z"/>
				</g>
				<g id="&lt;Group&gt;">
					<path id="&lt;Path&gt;" class="s14" d="m540.1 310.7c-1.4-3.9 0.9-8.2 5-9.6 4.1-1.5 8.5 0.5 9.9 4.4 1.4 3.8-0.9 8.1-5 9.6-4.1 1.4-8.6-0.5-9.9-4.4z"/>
				</g>
				<g id="&lt;Group&gt;">
					<path id="&lt;Path&gt;" class="s14" d="m607.2 287.1c-1.3-3.9 0.9-8.2 5-9.6 4.1-1.5 8.6 0.5 9.9 4.3 1.4 3.9-0.8 8.2-5 9.7-4.1 1.4-8.5-0.6-9.9-4.4z"/>
				</g>
				<g id="&lt;Group&gt;">
					<g id="&lt;Group&gt;">
						<path id="&lt;Compound Path&gt;" class="s4" d="m584.6 312l-0.5-1.7c-0.1-0.6-0.7-0.9-1.3-0.8-1.5 0.2-2.9 0.1-4.1-0.2-0.6-0.1-1-0.6-0.9-1.2v-0.5c0-0.7 0.7-1.2 1.4-1 1.4 0.3 3 0.3 4.5-0.1 2.7-0.7 3.5-2.8 2.9-5-0.5-2.1-1.7-3-4.8-3.5-4.2-0.5-8.5-1.3-9.3-4.7-0.8-2.9 0.3-6.4 4.7-7.6 0.5-0.2 0.7-0.9 0.6-1.4l-0.5-1.8c-0.2-0.6 0.2-1.3 0.9-1.5 0.6-0.1 1.3 0.3 1.4 0.9l0.4 1.5c0.2 0.6 0.7 1 1.3 0.9 1.2-0.2 2.3-0.1 3.1 0 0.6 0.1 1.1 0.7 1 1.3v0.4c-0.1 0.7-0.7 1.2-1.4 1.1-1-0.2-2.3-0.2-3.8 0.2-2.9 0.7-3.6 2.8-3.2 4.3 0.5 2 2.6 1.7 6.2 2.3 4.3 0.6 7.4 2.3 8.6 5.6 1.2 3.6-0.3 6.7-4.8 8.6-0.5 0.2-0.7 0.8-0.6 1.4l0.5 1.9c0.2 0.6-0.2 1.3-0.8 1.5h-0.1c-0.6 0.1-1.3-0.3-1.4-0.9z"/>
					</g>
				</g>
			</g>
			<g id="&lt;Group&gt;">
				<g id="&lt;Group&gt;">
					<path id="&lt;Path&gt;" class="s14" d="m1363.9 275.8c18-3.4 96.7-20.1 155.4-58.4 1.7-1.1 4-0.4 4.8 1.5l18.6 49.4c0.5 1.2 0.1 2.7-0.9 3.5-10.4 8.8-68 53.9-158.4 59.8-1.4 0.1-2.7-0.8-3.2-2.1l-18.6-49.4c-0.8-1.9 0.4-3.9 2.3-4.3z"/>
				</g>
				<g id="&lt;Group&gt;">
					<path id="&lt;Path&gt;" class="s4" d="m1375.6 280.2c17.4-3.8 85.5-20.1 137.8-51.8 2-1.2 4.6-0.4 5.4 1.8l13.6 35.9c0.6 1.6 0.1 3.3-1.2 4.3-11 8.3-62.8 44.8-140.8 53.1-1.7 0.1-3.3-0.8-3.9-2.4l-13.6-36c-0.8-2.1 0.5-4.4 2.7-4.9z"/>
				</g>
				<g id="&lt;Group&gt;">
					<path id="&lt;Path&gt;" class="s14" d="m1435.5 290.2c-3.9-10.3 1.8-22 12.8-26.2 11-4.1 23 0.9 26.9 11.2 3.9 10.3-1.9 21.9-12.8 26.1-11 4.1-23-0.9-26.9-11.1z"/>
				</g>
				<g id="&lt;Group&gt;">
					<path id="&lt;Path&gt;" class="s14" d="m1413.3 297c-1.4-3.8 0.7-8.2 4.8-9.7 4.1-1.6 8.5 0.3 10 4.1 1.4 3.8-0.7 8.2-4.8 9.7-4.1 1.6-8.5-0.3-10-4.1z"/>
				</g>
				<g id="&lt;Group&gt;">
					<path id="&lt;Path&gt;" class="s14" d="m1479.9 271.9c-1.5-3.9 0.7-8.2 4.8-9.8 4-1.5 8.5 0.3 10 4.2 1.4 3.8-0.7 8.2-4.8 9.7-4.1 1.5-8.6-0.3-10-4.1z"/>
				</g>
				<g id="&lt;Group&gt;">
					<g id="&lt;Group&gt;">
						<path id="&lt;Compound Path&gt;" class="s4" d="m1457.8 297.3l-0.5-1.7c-0.1-0.6-0.7-0.9-1.3-0.8-1.5 0.2-2.9 0.2-4.1-0.1-0.6-0.1-1-0.6-1-1.2v-0.4c0.1-0.7 0.7-1.3 1.4-1.1 1.4 0.2 3 0.2 4.6-0.2 2.6-0.8 3.3-2.9 2.7-5.1-0.6-2.1-1.8-3-4.9-3.3-4.2-0.5-8.5-1.2-9.4-4.6-0.8-2.9 0.1-6.3 4.5-7.7 0.5-0.2 0.7-0.8 0.6-1.3l-0.5-1.8c-0.2-0.7 0.1-1.3 0.8-1.5 0.6-0.2 1.3 0.2 1.5 0.8l0.4 1.5c0.2 0.6 0.7 1 1.3 0.9 1.2-0.2 2.3-0.2 3.1-0.1 0.7 0.1 1.1 0.7 1 1.3v0.4c0 0.7-0.7 1.2-1.4 1.1-0.9-0.1-2.2-0.2-3.8 0.3-2.8 0.8-3.4 2.9-3 4.4 0.6 2 2.6 1.6 6.3 2.1 4.3 0.5 7.3 2.1 8.6 5.4 1.4 3.6-0.1 6.7-4.5 8.7-0.5 0.3-0.7 0.9-0.6 1.4l0.5 1.9c0.2 0.6-0.1 1.3-0.8 1.5-0.7 0.2-1.3-0.2-1.5-0.8z"/>
					</g>
				</g>
			</g>
			<g id="&lt;Group&gt;">
				<g id="&lt;Group&gt;">
					<path id="&lt;Path&gt;" class="s14" d="m1334.3 318.8c11.5 14.2 63.1 75.9 124.5 109.8 1.8 1 2.3 3.4 0.9 4.9l-34.8 39.6c-0.9 1-2.4 1.4-3.6 0.9-12.7-5.1-79.5-34.8-127.1-111.9-0.7-1.2-0.6-2.7 0.4-3.8l34.8-39.6c1.3-1.5 3.7-1.5 4.9 0.1z"/>
				</g>
				<g id="&lt;Group&gt;">
					<path id="&lt;Path&gt;" class="s4" d="m1335.9 331.1c11.6 13.6 57.9 66.1 110.5 97.4 2 1.2 2.4 3.9 0.9 5.7l-25.4 28.8c-1.1 1.2-2.8 1.6-4.3 0.9-12.5-5.8-69-34.4-112.9-99.4-1-1.4-0.9-3.3 0.2-4.5l25.4-28.9c1.5-1.7 4.2-1.7 5.6 0z"/>
				</g>
				<g id="&lt;Group&gt;">
					<path id="&lt;Path&gt;" class="s14" d="m1355.2 388.7c7.3-8.3 20.3-8.7 29.1-0.9 8.8 7.7 10.1 20.7 2.8 28.9-7.3 8.3-20.3 8.7-29.1 1-8.8-7.8-10-20.7-2.8-29z"/>
				</g>
				<g id="&lt;Group&gt;">
					<path id="&lt;Path&gt;" class="s14" d="m1338.8 372.3c2.7-3.1 7.5-3.2 10.8-0.3 3.3 2.8 3.8 7.7 1.1 10.8-2.7 3-7.6 3.2-10.9 0.3-3.3-2.9-3.7-7.7-1-10.8z"/>
				</g>
				<g id="&lt;Group&gt;">
					<path id="&lt;Path&gt;" class="s14" d="m1392.2 419.3c2.7-3.1 7.6-3.2 10.9-0.3 3.2 2.8 3.7 7.7 1 10.8-2.7 3-7.6 3.2-10.8 0.3-3.3-2.9-3.8-7.7-1.1-10.8z"/>
				</g>
				<g id="&lt;Group&gt;">
					<g id="&lt;Group&gt;">
						<path id="&lt;Compound Path&gt;" class="s4" d="m1359.4 411.7l1.3-1.1c0.4-0.5 0.4-1.2 0.1-1.6-0.9-1.2-1.6-2.5-1.9-3.7-0.2-0.6 0.1-1.2 0.6-1.4l0.4-0.2c0.7-0.3 1.4 0.1 1.6 0.7 0.5 1.4 1.2 2.8 2.3 3.9 1.9 2 4.1 1.7 5.8 0.1 1.6-1.5 1.8-3 0.7-5.9-1.6-3.9-3-8-0.5-10.4 2.2-2.1 5.7-2.9 9 0.3 0.4 0.4 1 0.2 1.4-0.1l1.4-1.3c0.5-0.5 1.2-0.5 1.7 0 0.4 0.5 0.4 1.3-0.1 1.7l-1.1 1.1c-0.4 0.4-0.5 1.1-0.1 1.6 0.7 0.9 1.2 1.9 1.5 2.7 0.2 0.6-0.1 1.2-0.7 1.5l-0.4 0.1c-0.6 0.3-1.3 0-1.6-0.7-0.3-0.9-0.9-2-2-3.2-2.1-2.2-4.2-1.7-5.3-0.6-1.5 1.4-0.2 3.1 1.1 6.5 1.5 4.1 1.6 7.5-0.8 10.2-2.5 2.9-5.9 3.1-9.8 0.1-0.4-0.3-1.1-0.2-1.5 0.1l-1.4 1.4c-0.5 0.5-1.2 0.4-1.7 0v-0.1c-0.5-0.4-0.5-1.2 0-1.7z"/>
					</g>
				</g>
			</g>
			<g id="&lt;Group&gt;">
				<g id="&lt;Group&gt;">
					<path id="&lt;Path&gt;" class="s14" d="m995.4 494c17.2-5.9 92.8-33.6 145.5-79.8 1.6-1.3 4-0.9 5 0.9l25.4 46.2c0.6 1.2 0.5 2.6-0.4 3.6-9.1 10.2-59.7 63-148.4 81.5-1.4 0.3-2.8-0.3-3.5-1.6l-25.4-46.2c-1-1.8-0.1-4 1.8-4.6z"/>
				</g>
				<g id="&lt;Group&gt;">
					<path id="&lt;Path&gt;" class="s4" d="m1007.5 496.7c16.7-6.3 81.8-32 129.1-70.8 1.8-1.5 4.5-1 5.7 1.1l18.5 33.6c0.8 1.5 0.5 3.2-0.6 4.4-9.7 9.8-55.9 53.2-131.9 72.4-1.7 0.4-3.4-0.3-4.2-1.8l-18.5-33.7c-1.1-2-0.2-4.4 1.9-5.2z"/>
				</g>
				<g id="&lt;Group&gt;">
					<path id="&lt;Path&gt;" class="s14" d="m1068.2 498.1c-5.3-9.7-1.3-22 9-27.7 10.3-5.6 22.9-2.4 28.2 7.2 5.3 9.7 1.3 22.1-9 27.7-10.3 5.6-22.9 2.4-28.2-7.2z"/>
				</g>
				<g id="&lt;Group&gt;">
					<path id="&lt;Path&gt;" class="s14" d="m1047.2 508c-2-3.6-0.5-8.2 3.4-10.3 3.8-2.1 8.5-0.9 10.5 2.7 1.9 3.6 0.4 8.2-3.4 10.3-3.8 2.1-8.5 0.9-10.5-2.7z"/>
				</g>
				<g id="&lt;Group&gt;">
					<path id="&lt;Path&gt;" class="s14" d="m1109.6 473.7c-2-3.6-0.5-8.2 3.3-10.3 3.9-2.1 8.6-0.9 10.5 2.7 2 3.6 0.5 8.2-3.3 10.3-3.8 2.1-8.5 0.9-10.5-2.7z"/>
				</g>
				<g id="&lt;Group&gt;">
					<g id="&lt;Group&gt;">
						<path id="&lt;Compound Path&gt;" class="s4" d="m1091.3 502l-0.7-1.6c-0.2-0.6-0.9-0.8-1.5-0.6-1.3 0.4-2.8 0.6-4 0.5-0.6 0-1.1-0.5-1.2-1.1v-0.4c0-0.7 0.5-1.3 1.3-1.3 1.4 0.1 2.9-0.2 4.4-0.8 2.5-1.1 2.9-3.3 2-5.4-0.9-2-2.2-2.7-5.3-2.7-4.2 0.2-8.6 0.1-10-3.1-1.2-2.8-0.7-6.3 3.4-8.3 0.5-0.2 0.6-0.9 0.4-1.4l-0.8-1.7c-0.3-0.6 0-1.3 0.6-1.6 0.6-0.3 1.3 0 1.6 0.6l0.6 1.4c0.3 0.6 0.9 0.9 1.5 0.7 1.1-0.4 2.2-0.5 3-0.5 0.7 0 1.2 0.5 1.2 1.1l0.1 0.4c0 0.7-0.6 1.3-1.3 1.3-0.9 0-2.2 0.2-3.7 0.8-2.7 1.2-3 3.4-2.4 4.8 0.9 1.9 2.9 1.3 6.5 1.2 4.4-0.1 7.6 1.1 9.4 4.2 1.8 3.3 0.8 6.6-3.3 9.2-0.5 0.3-0.6 1-0.4 1.5l0.8 1.8c0.3 0.6 0 1.3-0.6 1.6-0.6 0.3-1.3 0-1.6-0.6z"/>
					</g>
				</g>
			</g>
			<g id="&lt;Group&gt;">
				<g id="&lt;Group&gt;">
					<path id="&lt;Path&gt;" class="s14" d="m909 442c-2.3 18.1-10.8 98.1 7.5 165.8 0.5 2-0.9 4-2.9 4.1l-52.7 2.4c-1.4 0.1-2.6-0.7-3.1-2-5.2-12.6-30.2-81.3-7.8-169 0.4-1.4 1.6-2.4 3-2.5l52.7-2.4c2-0.1 3.6 1.6 3.3 3.6z"/>
				</g>
				<g id="&lt;Group&gt;">
					<path id="&lt;Path&gt;" class="s4" d="m901.3 451.7c-1.8 17.8-7.4 87.5 6.6 147.1 0.5 2.3-1.1 4.5-3.4 4.6l-38.4 1.8c-1.6 0.1-3.1-0.9-3.7-2.5-4.5-13-23.1-73.6-6.9-150.3 0.4-1.7 1.8-2.9 3.5-2.9l38.4-1.8c2.3-0.1 4.1 1.8 3.9 4z"/>
				</g>
				<g id="&lt;Group&gt;">
					<path id="&lt;Path&gt;" class="s14" d="m873.3 505.6c10.9-0.5 20.3 8.6 20.8 20.3 0.6 11.7-7.9 21.6-18.9 22.1-11 0.5-20.3-8.6-20.8-20.3-0.6-11.7 7.9-21.6 18.9-22.1z"/>
				</g>
				<g id="&lt;Group&gt;">
					<ellipse id="&lt;Path&gt;" class="s14" cx="874" cy="490.3" rx="7.4" ry="7.9"/>
				</g>
				<g id="&lt;Group&gt;">
					<ellipse id="&lt;Path&gt;" class="s14" cx="877.3" cy="561.4" rx="7.4" ry="7.9"/>
				</g>
				<g id="&lt;Group&gt;">
					<g id="&lt;Group&gt;">
						<path id="&lt;Compound Path&gt;" class="s4" d="m859.6 524.6l1.7 0.1c0.6 0 1.1-0.4 1.2-1.1 0.2-1.4 0.7-2.8 1.3-3.9 0.3-0.5 1-0.7 1.5-0.5l0.4 0.2c0.7 0.2 0.9 1 0.6 1.7-0.7 1.2-1.1 2.7-1.2 4.3-0.1 2.8 1.7 4.1 4 4.2 2.1 0.1 3.3-0.8 4.6-3.6 1.8-3.9 3.8-7.7 7.3-7.6 3 0.1 6 2.1 5.9 6.7 0 0.6 0.6 0.9 1.2 1h1.8c0.7 0.1 1.2 0.6 1.2 1.3-0.1 0.6-0.6 1.2-1.3 1.1h-1.5c-0.6-0.1-1.2 0.4-1.3 1-0.2 1.2-0.5 2.1-0.9 2.9-0.3 0.6-0.9 0.8-1.5 0.6l-0.4-0.2c-0.6-0.2-0.9-1-0.6-1.6 0.4-0.9 0.8-2.1 0.9-3.7 0.1-3-1.7-4.2-3.3-4.3-2 0-2.3 2-3.9 5.4-1.8 3.9-4.3 6.3-7.8 6.5-3.8 0.2-6.4-2.1-6.9-7-0.1-0.6-0.6-0.9-1.1-1l-2-0.1c-0.7 0-1.2-0.5-1.2-1.2 0.1-0.7 0.6-1.2 1.3-1.2z"/>
					</g>
				</g>
			</g>
			<g id="&lt;Group&gt;">
				<g id="&lt;Group&gt;">
					<path id="&lt;Path&gt;" class="s14" d="m587.3 362.6c7.7 16.5 43.1 88.8 94.6 136.3 1.5 1.4 1.4 3.9-0.3 5l-43.3 30.2c-1.1 0.7-2.6 0.7-3.7-0.1-11.1-7.9-68.8-52.7-96.6-138.9-0.4-1.4 0.1-2.9 1.2-3.7l43.4-30.1c1.6-1.1 3.8-0.5 4.7 1.3z"/>
				</g>
				<g id="&lt;Group&gt;">
					<path id="&lt;Path&gt;" class="s4" d="m585.9 374.9c8 16 40.3 78 83.9 121 1.7 1.6 1.5 4.4-0.4 5.7l-31.5 22c-1.4 0.9-3.2 0.8-4.5-0.2-10.8-8.6-58.7-50-85.8-123.6-0.6-1.5-0.1-3.3 1.3-4.3l31.6-21.9c1.8-1.3 4.4-0.7 5.4 1.3z"/>
				</g>
				<g id="&lt;Group&gt;">
					<path id="&lt;Path&gt;" class="s14" d="m590.9 435.4c9-6.2 21.8-3.5 28.4 6.1 6.7 9.6 4.8 22.5-4.2 28.8-9 6.2-21.8 3.5-28.4-6.1-6.7-9.6-4.8-22.5 4.2-28.8z"/>
				</g>
				<g id="&lt;Group&gt;">
					<path id="&lt;Path&gt;" class="s14" d="m578.8 415.6c3.4-2.3 8.1-1.3 10.6 2.2 2.5 3.6 1.8 8.4-1.5 10.8-3.4 2.3-8.2 1.3-10.6-2.3-2.5-3.6-1.8-8.4 1.5-10.7z"/>
				</g>
				<g id="&lt;Group&gt;">
					<path id="&lt;Path&gt;" class="s14" d="m619.5 474c3.3-2.3 8.1-1.3 10.6 2.3 2.5 3.5 1.8 8.3-1.6 10.7-3.4 2.3-8.1 1.3-10.6-2.3-2.5-3.5-1.8-8.3 1.6-10.7z"/>
				</g>
				<g id="&lt;Group&gt;">
					<g id="&lt;Group&gt;">
						<path id="&lt;Compound Path&gt;" class="s4" d="m589.4 458.8l1.5-0.8c0.5-0.3 0.8-1 0.5-1.6-0.6-1.3-0.9-2.7-1-4 0-0.6 0.4-1.1 1-1.2l0.4-0.1c0.7-0.1 1.4 0.4 1.4 1.1 0.1 1.4 0.5 3 1.3 4.4 1.4 2.4 3.6 2.5 5.6 1.4 1.9-1.1 2.5-2.5 2.1-5.5-0.6-4.3-1-8.6 2-10.3 2.7-1.5 6.2-1.4 8.6 2.5 0.3 0.4 1 0.4 1.5 0.2l1.6-1c0.6-0.3 1.3-0.1 1.7 0.5 0.3 0.6 0.1 1.3-0.5 1.6l-1.3 0.8c-0.6 0.3-0.8 1-0.5 1.5 0.4 1.1 0.7 2.1 0.7 3 0.1 0.6-0.3 1.2-0.9 1.3l-0.4 0.1c-0.7 0.1-1.4-0.4-1.4-1.1-0.1-1-0.4-2.2-1.2-3.6-1.5-2.6-3.7-2.7-5.1-1.9-1.8 1.1-0.9 3-0.5 6.6 0.6 4.3-0.2 7.7-3.1 9.7-3.1 2.2-6.5 1.6-9.6-2.3-0.3-0.4-1-0.4-1.4-0.2l-1.8 1c-0.5 0.4-1.3 0.2-1.6-0.4-0.3-0.6-0.1-1.4 0.4-1.7z"/>
					</g>
				</g>
			</g>
			<g id="&lt;Group&gt;">
				<g id="&lt;Group&gt;">
					<path id="&lt;Path&gt;" class="s14" d="m1607.7 442.8c8.3 16.2 46.6 87 100 132.4 1.6 1.4 1.5 3.8-0.1 5.1l-42 31.8c-1.1 0.8-2.6 0.9-3.7 0.1-11.4-7.5-71-49.9-102.2-134.9-0.5-1.4 0-2.9 1.1-3.7l42.1-31.9c1.6-1.2 3.8-0.7 4.8 1.1z"/>
				</g>
				<g id="&lt;Group&gt;">
					<path id="&lt;Path&gt;" class="s4" d="m1606.8 455.2c8.6 15.6 43.4 76.3 88.7 117.5 1.8 1.6 1.7 4.3-0.2 5.7l-30.6 23.2c-1.3 1-3.1 1-4.4 0.1-11.2-8.2-60.8-47.6-90.8-120.1-0.7-1.5-0.2-3.3 1.2-4.3l30.6-23.2c1.8-1.4 4.4-0.9 5.5 1.1z"/>
				</g>
				<g id="&lt;Group&gt;">
					<path id="&lt;Path&gt;" class="s14" d="m1614.2 515.5c8.8-6.7 21.6-4.5 28.7 4.9 7 9.3 5.7 22.2-3.1 28.9-8.8 6.6-21.6 4.4-28.7-4.9-7-9.3-5.7-22.3 3.1-28.9z"/>
				</g>
				<g id="&lt;Group&gt;">
					<path id="&lt;Path&gt;" class="s14" d="m1601.3 496.1c3.3-2.4 8.1-1.6 10.7 1.9 2.7 3.4 2.2 8.3-1.1 10.7-3.3 2.5-8.1 1.7-10.7-1.8-2.6-3.5-2.1-8.3 1.1-10.8z"/>
				</g>
				<g id="&lt;Group&gt;">
					<path id="&lt;Path&gt;" class="s14" d="m1644.3 552.9c3.3-2.5 8.1-1.7 10.7 1.8 2.6 3.5 2.1 8.3-1.1 10.8-3.3 2.4-8.1 1.6-10.7-1.9-2.7-3.4-2.1-8.3 1.1-10.7z"/>
				</g>
				<g id="&lt;Group&gt;">
					<g id="&lt;Group&gt;">
						<path id="&lt;Compound Path&gt;" class="s4" d="m1613.7 538.9l1.4-0.9c0.6-0.3 0.7-1 0.5-1.6-0.7-1.3-1.1-2.7-1.2-3.9 0-0.6 0.4-1.2 1-1.3l0.4-0.1c0.7-0.2 1.3 0.3 1.4 1.1 0.2 1.3 0.6 2.9 1.5 4.2 1.5 2.4 3.7 2.4 5.6 1.2 1.9-1.1 2.4-2.5 1.8-5.6-0.7-4.2-1.2-8.5 1.7-10.3 2.6-1.6 6.2-1.7 8.7 2.1 0.3 0.5 1 0.4 1.5 0.2l1.5-1c0.6-0.4 1.4-0.2 1.7 0.3 0.4 0.6 0.2 1.3-0.4 1.7l-1.3 0.8c-0.5 0.4-0.7 1-0.4 1.6 0.5 1.1 0.8 2 0.9 2.9 0.1 0.6-0.4 1.2-1 1.4h-0.4c-0.6 0.2-1.3-0.3-1.4-1-0.1-0.9-0.5-2.2-1.3-3.5-1.6-2.6-3.8-2.6-5.1-1.7-1.8 1.1-0.8 3-0.3 6.6 0.7 4.3 0.1 7.7-2.7 9.8-3 2.3-6.5 1.9-9.7-1.9-0.3-0.4-1-0.4-1.4-0.1l-1.7 1.1c-0.6 0.3-1.3 0.1-1.7-0.4v-0.1c-0.3-0.5-0.2-1.3 0.4-1.6z"/>
					</g>
				</g>
			</g>
			<g id="&lt;Group&gt;">
				<g id="&lt;Group&gt;">
					<path id="&lt;Path&gt;" class="s14" d="m1234.3 543c17 6.6 92.6 34.2 162.7 32.8 2.1 0 3.6 1.8 3.2 3.8l-10.3 51.8c-0.3 1.3-1.4 2.3-2.7 2.5-13.5 1.9-86.2 9.6-165.9-33.3-1.3-0.7-1.9-2.1-1.7-3.5l10.4-51.7c0.4-2 2.4-3.1 4.3-2.4z"/>
				</g>
				<g id="&lt;Group&gt;">
					<path id="&lt;Path&gt;" class="s4" d="m1241.9 552.9c16.7 6 83.1 28.3 144.3 29.1 2.3 0 4.1 2.1 3.6 4.4l-7.5 37.7c-0.3 1.6-1.7 2.8-3.3 3-13.8 1.2-77 4.6-147.5-29.7-1.6-0.7-2.4-2.4-2-4.1l7.5-37.7c0.4-2.2 2.7-3.5 4.9-2.7z"/>
				</g>
				<g id="&lt;Group&gt;">
					<path id="&lt;Path&gt;" class="s14" d="m1287.4 593.1c2.1-10.8 13.2-17.7 24.7-15.4 11.5 2.3 19 12.9 16.9 23.7-2.2 10.8-13.3 17.7-24.7 15.4-11.5-2.3-19.1-12.9-16.9-23.7z"/>
				</g>
				<g id="&lt;Group&gt;">
					<path id="&lt;Path&gt;" class="s14" d="m1264.9 587.1c0.8-4 5-6.6 9.2-5.7 4.3 0.9 7.1 4.8 6.3 8.8-0.8 4-4.9 6.6-9.2 5.7-4.3-0.8-7.1-4.8-6.3-8.8z"/>
				</g>
				<g id="&lt;Group&gt;">
					<path id="&lt;Path&gt;" class="s14" d="m1334.7 601.1c0.8-4 4.9-6.6 9.2-5.7 4.3 0.8 7.1 4.8 6.3 8.8-0.8 4-4.9 6.6-9.2 5.7-4.3-0.8-7.1-4.8-6.3-8.8z"/>
				</g>
				<g id="&lt;Group&gt;">
					<g id="&lt;Group&gt;">
						<path id="&lt;Compound Path&gt;" class="s4" d="m1302.5 610.9l0.5-1.6c0.2-0.6-0.1-1.2-0.7-1.4-1.4-0.6-2.6-1.4-3.5-2.3-0.4-0.4-0.5-1-0.1-1.5l0.2-0.4c0.4-0.5 1.3-0.6 1.8-0.1 1 0.9 2.4 1.7 3.9 2.2 2.7 0.8 4.4-0.7 5-2.8 0.7-2.2 0.1-3.5-2.3-5.5-3.4-2.6-6.6-5.5-5.6-8.8 0.8-2.9 3.5-5.3 7.9-4.2 0.5 0.2 1-0.3 1.2-0.8l0.5-1.8c0.2-0.7 0.9-1 1.5-0.8 0.6 0.1 1 0.8 0.8 1.5l-0.4 1.4c-0.2 0.6 0.1 1.2 0.7 1.5 1.1 0.5 1.9 1 2.6 1.6 0.5 0.4 0.6 1.1 0.2 1.6l-0.2 0.3c-0.5 0.6-1.3 0.7-1.8 0.2-0.7-0.6-1.8-1.3-3.4-1.8-2.8-0.8-4.4 0.7-4.9 2.2-0.6 2 1.4 2.8 4.2 5.1 3.4 2.7 5.1 5.7 4.5 9.2-0.8 3.7-3.6 5.6-8.5 5-0.5-0.1-1 0.3-1.2 0.8l-0.5 1.9c-0.2 0.7-0.9 1-1.5 0.8h-0.1c-0.6-0.2-1-0.8-0.8-1.5z"/>
					</g>
				</g>
			</g>
			<g id="&lt;Group&gt;">
				<g id="&lt;Group&gt;">
					<path id="&lt;Path&gt;" class="s14" d="m1836.2 287.7c17.1-6.4 91.8-36.2 143.2-84 1.5-1.4 3.9-1.1 4.9 0.7l26.8 45.5c0.7 1.1 0.5 2.6-0.3 3.6-8.8 10.5-57.9 64.7-145.9 85.8-1.4 0.4-2.8-0.2-3.6-1.5l-26.7-45.4c-1-1.8-0.3-4 1.6-4.7z"/>
				</g>
				<g id="&lt;Group&gt;">
					<path id="&lt;Path&gt;" class="s4" d="m1848.4 290c16.5-6.7 80.8-34.3 127-74.5 1.8-1.5 4.5-1.1 5.7 0.9l19.4 33.1c0.9 1.4 0.7 3.2-0.4 4.4-9.4 10.1-54.3 54.8-129.8 76.3-1.6 0.4-3.3-0.3-4.2-1.7l-19.5-33.1c-1.1-2-0.3-4.5 1.8-5.4z"/>
				</g>
				<g id="&lt;Group&gt;">
					<path id="&lt;Path&gt;" class="s14" d="m1909.1 289.7c-5.5-9.5-1.9-22 8.2-27.9 10.1-6 22.8-3.1 28.4 6.4 5.6 9.4 1.9 21.9-8.2 27.9-10.1 5.9-22.8 3.1-28.4-6.4z"/>
				</g>
				<g id="&lt;Group&gt;">
					<path id="&lt;Path&gt;" class="s14" d="m1888.4 300.2c-2-3.5-0.7-8.2 3.1-10.4 3.7-2.2 8.5-1.2 10.6 2.4 2 3.5 0.7 8.2-3.1 10.4-3.8 2.2-8.5 1.1-10.6-2.4z"/>
				</g>
				<g id="&lt;Group&gt;">
					<path id="&lt;Path&gt;" class="s14" d="m1949.8 264.1c-2.1-3.5-0.7-8.2 3-10.4 3.8-2.2 8.5-1.2 10.6 2.4 2.1 3.5 0.7 8.2-3.1 10.4-3.7 2.2-8.5 1.1-10.5-2.4z"/>
				</g>
				<g id="&lt;Group&gt;">
					<g id="&lt;Group&gt;">
						<path id="&lt;Compound Path&gt;" class="s4" d="m1932.3 292.9l-0.7-1.5c-0.3-0.6-0.9-0.9-1.5-0.7-1.4 0.5-2.8 0.8-4.1 0.7-0.6 0-1-0.5-1.1-1.1l-0.1-0.4c0-0.7 0.5-1.3 1.3-1.3 1.3 0 2.9-0.3 4.4-1 2.5-1.1 2.8-3.4 1.8-5.4-0.9-2-2.2-2.6-5.3-2.5-4.3 0.3-8.6 0.3-10.1-2.8-1.3-2.8-1-6.3 3.1-8.4 0.5-0.3 0.5-1 0.3-1.5l-0.8-1.6c-0.3-0.6 0-1.4 0.6-1.6 0.6-0.3 1.3-0.1 1.6 0.5l0.7 1.4c0.2 0.6 0.8 0.8 1.4 0.7 1.2-0.4 2.2-0.6 3.1-0.6 0.6 0 1.1 0.5 1.2 1.1v0.4c0.1 0.7-0.5 1.3-1.1 1.3-1 0-2.3 0.2-3.8 0.9-2.7 1.3-2.9 3.4-2.2 4.9 0.9 1.8 2.9 1.1 6.5 1 4.4-0.2 7.7 0.8 9.5 3.9 1.9 3.2 1.1 6.6-3 9.3-0.5 0.3-0.6 1-0.3 1.5l0.8 1.7c0.3 0.6 0.1 1.4-0.5 1.6l-0.1 0.1c-0.6 0.2-1.3 0-1.6-0.6z"/>
					</g>
				</g>
			</g>
			<g id="&lt;Group&gt;">
				<g id="&lt;Group&gt;">
					<path id="&lt;Path&gt;" class="s14" d="m1988.6 356.6c16.1 8.7 87.7 45.6 157.4 53 2 0.2 3.3 2.2 2.7 4.2l-16.8 50c-0.4 1.3-1.6 2.2-2.9 2.2-13.7 0.2-86.8-1.2-160.5-53.9-1.2-0.8-1.6-2.3-1.2-3.6l16.8-50c0.6-1.9 2.8-2.8 4.5-1.9z"/>
				</g>
				<g id="&lt;Group&gt;">
					<path id="&lt;Path&gt;" class="s4" d="m1994.9 367.4c15.9 8 78.9 38.5 139.6 47 2.3 0.3 3.7 2.6 3 4.8l-12.2 36.4c-0.5 1.6-2 2.6-3.6 2.6-13.8-0.5-77-5.1-142.7-47.9-1.4-1-2-2.7-1.5-4.3l12.2-36.5c0.8-2.1 3.2-3.1 5.2-2.1z"/>
				</g>
				<g id="&lt;Group&gt;">
					<path id="&lt;Path&gt;" class="s14" d="m2035 413c3.5-10.5 15.4-15.9 26.5-12.2 11.1 3.7 17.2 15.2 13.8 25.6-3.5 10.5-15.4 15.9-26.5 12.2-11.1-3.7-17.3-15.2-13.8-25.6z"/>
				</g>
				<g id="&lt;Group&gt;">
					<path id="&lt;Path&gt;" class="s14" d="m2013.5 404.3c1.3-3.9 5.7-6 9.9-4.6 4.1 1.4 6.4 5.7 5.1 9.6-1.3 3.9-5.7 5.9-9.8 4.5-4.2-1.4-6.5-5.7-5.2-9.5z"/>
				</g>
				<g id="&lt;Group&gt;">
					<path id="&lt;Path&gt;" class="s14" d="m2081 426.9c1.3-3.9 5.7-6 9.8-4.6 4.2 1.4 6.5 5.7 5.2 9.6-1.3 3.9-5.7 5.9-9.9 4.5-4.1-1.4-6.4-5.7-5.1-9.5z"/>
				</g>
				<g id="&lt;Group&gt;">
					<g id="&lt;Group&gt;">
						<path id="&lt;Compound Path&gt;" class="s4" d="m2047.8 432.6l0.7-1.6c0.2-0.5 0-1.2-0.5-1.5-1.3-0.7-2.4-1.7-3.2-2.6-0.4-0.5-0.3-1.2 0.1-1.6l0.2-0.3c0.5-0.5 1.4-0.5 1.8 0 0.9 1.1 2.2 2.1 3.7 2.7 2.5 1.1 4.4-0.1 5.3-2.1 0.9-2.1 0.5-3.5-1.7-5.7-3-3.1-5.8-6.3-4.4-9.5 1.2-2.8 4.1-4.8 8.4-3.1 0.5 0.2 1-0.2 1.2-0.7l0.8-1.7c0.3-0.7 1-0.9 1.6-0.7 0.6 0.3 0.9 1 0.6 1.6l-0.6 1.4c-0.3 0.6-0.1 1.3 0.5 1.6 1 0.6 1.8 1.2 2.4 1.9 0.4 0.5 0.4 1.2 0 1.6l-0.3 0.3c-0.5 0.5-1.3 0.5-1.8 0-0.6-0.7-1.6-1.6-3.1-2.2-2.7-1.2-4.5 0-5.1 1.5-0.9 1.9 1 2.9 3.5 5.6 3 3.1 4.4 6.3 3.3 9.7-1.2 3.6-4.3 5.1-9.1 3.8-0.5-0.1-1 0.2-1.3 0.7l-0.7 1.9c-0.3 0.6-1 0.9-1.6 0.6h-0.1c-0.6-0.3-0.9-1-0.6-1.6z"/>
					</g>
				</g>
			</g>
			<g id="&lt;Group&gt;">
				<g id="&lt;Group&gt;">
					<path id="&lt;Path&gt;" class="s14" d="m1900.6 616.1c17.9-3.8 96.2-22.3 154-62 1.7-1.1 4.1-0.4 4.8 1.5l19.8 48.9c0.5 1.2 0.2 2.7-0.9 3.6-10.2 9-66.7 55.4-156.9 63.3-1.4 0.1-2.8-0.7-3.3-2l-19.7-48.9c-0.8-1.9 0.3-4 2.2-4.4z"/>
				</g>
				<g id="&lt;Group&gt;">
					<path id="&lt;Path&gt;" class="s4" d="m1912.4 620.2c17.3-4.2 85-22 136.6-54.9 2-1.3 4.6-0.5 5.5 1.7l14.3 35.6c0.7 1.5 0.2 3.2-1.1 4.3-10.8 8.6-61.8 46.1-139.5 56.2-1.7 0.3-3.3-0.7-3.9-2.3l-14.5-35.6c-0.8-2.1 0.4-4.5 2.6-5z"/>
				</g>
				<g id="&lt;Group&gt;">
					<path id="&lt;Path&gt;" class="s14" d="m1972.5 628.8c-4.1-10.2 1.3-22 12.2-26.4 10.9-4.4 23 0.3 27.1 10.5 4.1 10.2-1.3 22-12.2 26.4-10.8 4.4-23-0.3-27.1-10.5z"/>
				</g>
				<g id="&lt;Group&gt;">
					<path id="&lt;Path&gt;" class="s14" d="m1950.5 636.1c-1.6-3.8 0.5-8.2 4.5-9.8 4.1-1.6 8.6 0.1 10.1 3.9 1.6 3.8-0.5 8.2-4.5 9.9-4.1 1.6-8.6-0.2-10.1-4z"/>
				</g>
				<g id="&lt;Group&gt;">
					<path id="&lt;Path&gt;" class="s14" d="m2016.5 609.5c-1.6-3.8 0.5-8.2 4.5-9.8 4.1-1.7 8.6 0.1 10.1 3.9 1.6 3.8-0.5 8.2-4.5 9.8-4.1 1.6-8.6-0.1-10.1-3.9z"/>
				</g>
				<g id="&lt;Group&gt;">
					<g id="&lt;Group&gt;">
						<path id="&lt;Compound Path&gt;" class="s4" d="m1995 635.4l-0.5-1.6c-0.2-0.6-0.8-1-1.4-0.8-1.5 0.2-2.9 0.2-4.1 0-0.6-0.1-1-0.6-1-1.2v-0.4c0-0.7 0.7-1.3 1.4-1.2 1.4 0.3 3 0.2 4.5-0.3 2.6-0.8 3.3-2.9 2.6-5.1-0.6-2.1-1.8-2.9-4.9-3.2-4.3-0.4-8.5-1-9.6-4.3-0.8-2.9 0-6.4 4.4-7.9 0.5-0.1 0.7-0.8 0.5-1.3l-0.5-1.8c-0.2-0.6 0.1-1.3 0.8-1.5 0.6-0.2 1.3 0.1 1.5 0.8l0.4 1.5c0.2 0.6 0.8 0.9 1.4 0.8 1.2-0.2 2.2-0.2 3.1-0.1 0.6 0.1 1 0.6 1 1.3v0.4c-0.1 0.6-0.7 1.2-1.4 1.1-0.9-0.1-2.2-0.1-3.8 0.3-2.8 0.9-3.4 3-2.9 4.5 0.6 2 2.7 1.6 6.3 2 4.3 0.4 7.4 1.9 8.8 5.2 1.4 3.5 0.1 6.7-4.4 8.8-0.5 0.3-0.6 0.9-0.5 1.4l0.6 1.9c0.2 0.6-0.2 1.3-0.8 1.5-0.7 0.2-1.3-0.2-1.5-0.8z"/>
					</g>
				</g>
			</g>
			<g id="&lt;Group&gt;">
				<g id="&lt;Group&gt;">
					<path id="&lt;Path&gt;" class="s14" d="m355.8 371.1c15.8 9.2 86.3 48 155.8 57.4 2.1 0.2 3.3 2.3 2.6 4.2l-18.1 49.6c-0.5 1.2-1.7 2.1-3.1 2.1-13.6-0.2-86.6-3.7-158.9-58.4-1.1-0.8-1.5-2.3-1-3.6l18.1-49.6c0.7-1.8 2.9-2.7 4.6-1.7z"/>
				</g>
				<g id="&lt;Group&gt;">
					<path id="&lt;Path&gt;" class="s4" d="m361.8 382.1c15.7 8.5 77.8 40.7 138.2 50.8 2.3 0.4 3.7 2.8 2.9 5l-13.2 36c-0.6 1.6-2.1 2.5-3.7 2.4-13.8-0.8-76.8-7.1-141.3-51.8-1.4-1-1.9-2.8-1.4-4.4l13.3-36.1c0.8-2.1 3.2-3 5.2-1.9z"/>
				</g>
				<g id="&lt;Group&gt;">
					<path id="&lt;Path&gt;" class="s14" d="m400.6 428.7c3.8-10.3 15.8-15.4 26.8-11.4 11 4.1 16.8 15.7 13 26-3.7 10.4-15.7 15.5-26.7 11.4-11-4-16.9-15.6-13.1-26z"/>
				</g>
				<g id="&lt;Group&gt;">
					<path id="&lt;Path&gt;" class="s14" d="m379.4 419.4c1.4-3.8 5.8-5.7 9.9-4.2 4.1 1.5 6.3 5.8 4.9 9.7-1.4 3.8-5.9 5.7-10 4.2-4.1-1.5-6.3-5.8-4.8-9.7z"/>
				</g>
				<g id="&lt;Group&gt;">
					<path id="&lt;Path&gt;" class="s14" d="m446.2 443.9c1.4-3.8 5.9-5.7 10-4.2 4.1 1.5 6.2 5.8 4.8 9.6-1.4 3.9-5.9 5.8-10 4.3-4-1.5-6.2-5.8-4.8-9.7z"/>
				</g>
				<g id="&lt;Group&gt;">
					<g id="&lt;Group&gt;">
						<path id="&lt;Compound Path&gt;" class="s4" d="m412.9 448.7l0.7-1.5c0.2-0.6 0-1.3-0.5-1.6-1.2-0.7-2.3-1.7-3.1-2.7-0.4-0.5-0.3-1.1 0.1-1.6l0.3-0.2c0.5-0.6 1.3-0.5 1.8 0 0.9 1.1 2.1 2.2 3.5 2.8 2.5 1.2 4.4 0.1 5.4-2 0.9-2 0.6-3.4-1.5-5.7-2.9-3.1-5.6-6.5-4.2-9.6 1.3-2.7 4.3-4.7 8.5-2.9 0.5 0.2 1.1-0.2 1.3-0.7l0.8-1.7c0.3-0.6 1-0.8 1.6-0.5 0.6 0.2 0.9 1 0.6 1.6l-0.7 1.4c-0.2 0.5-0.1 1.2 0.5 1.5 1 0.6 1.8 1.3 2.3 2 0.4 0.5 0.4 1.2 0 1.6l-0.3 0.3c-0.5 0.5-1.3 0.5-1.8-0.1-0.6-0.7-1.6-1.6-3-2.3-2.7-1.2-4.5 0-5.2 1.4-0.9 1.9 0.9 3 3.4 5.7 2.9 3.2 4.1 6.4 2.9 9.8-1.2 3.5-4.4 5-9.1 3.6-0.5-0.2-1.1 0.2-1.3 0.7l-0.8 1.8c-0.3 0.6-1 0.8-1.6 0.5h-0.1c-0.6-0.3-0.8-1-0.5-1.6z"/>
					</g>
				</g>
			</g>
		</g>
	</g>
</svg>