<svg xmlns="http://www.w3.org/2000/svg" viewBox="0 0 330 90"><g id="Camada_1" data-name="Camada 1"><path d="M71.23,5H82L94,21.22,106.09,5h10.73V43.58h-13V34.71l.11-7.93h-.17l-6,8.32H90.34l-6.06-8.37-.17.05.11,7.93v8.87h-13Z" fill="#87c743"/><path d="M125.14,41.82a8.31,8.31,0,0,1-3-6.72,8.4,8.4,0,0,1,2.7-6.53,10.39,10.39,0,0,1,7.26-2.45h9.37V24.36a2.32,2.32,0,0,0-.91-1.85,3.87,3.87,0,0,0-4.44-.08,2.46,2.46,0,0,0-1,1.76H123.6a11.08,11.08,0,0,1,4.43-8q3.78-2.73,10.33-2.72,7.42,0,11.4,3.46t4,10.08V43.58h-9l-1.27-3.2A12.17,12.17,0,0,1,139,43.3a16.11,16.11,0,0,1-5.75,1Q128.11,44.29,125.14,41.82ZM135,35.9a3.63,3.63,0,0,0,2.26.63,4.44,4.44,0,0,0,3.19-1.16,4.05,4.05,0,0,0,1.21-3.08V31.9h-4.4a3.57,3.57,0,0,0-2.26.64,2,2,0,0,0-.83,1.68A2,2,0,0,0,135,35.9Z" fill="#87c743"/><path d="M164.87,40.63q-3.27-2.94-3.27-8.78V23.92h-5.24V14.23H159a8.16,8.16,0,0,0,2.7-.34,2.46,2.46,0,0,0,1.41-1.18,8.43,8.43,0,0,0,.74-2.5l.6-3.69h9.75v7.71h6.72v9.63h-6.72v5.45a4,4,0,0,0,1,3.06,4.57,4.57,0,0,0,3.22,1h2.81V43.58h-6.55C170.31,43.58,167.06,42.6,164.87,40.63Z" fill="#87c743"/><path d="M191.86,42.45a14.5,14.5,0,0,1-6-5.48,15.16,15.16,0,0,1-2.15-8,15,15,0,0,1,2.17-8,14.7,14.7,0,0,1,6.06-5.48,19.45,19.45,0,0,1,8.84-1.95A20.11,20.11,0,0,1,209,15.08a14.79,14.79,0,0,1,5.92,4.6,14.08,14.08,0,0,1,2.76,6.94H206a5.11,5.11,0,0,0-2-2.26,5.82,5.82,0,0,0-3-.77,4.92,4.92,0,0,0-3.72,1.46,5.35,5.35,0,0,0-1.41,3.88,5.29,5.29,0,0,0,1.41,3.83A4.92,4.92,0,0,0,201,34.22a5.56,5.56,0,0,0,3.16-.91,5.18,5.18,0,0,0,2-2.51h11.67a14.6,14.6,0,0,1-8.73,12,20.09,20.09,0,0,1-8.34,1.65A19.54,19.54,0,0,1,191.86,42.45Z" fill="#87c743"/><path d="M234.78,43.58V27.83a4.79,4.79,0,0,1,.94-3.2,3.28,3.28,0,0,1,2.64-1.1,3.14,3.14,0,0,1,2.54,1,4.73,4.73,0,0,1,.88,3.08v5.63H242c.57,0,1.12,0,1.67.05a18.76,18.76,0,0,1,7.06,1.76,14,14,0,0,1,3.59,2.53V26.07q0-5.84-3.22-9.23a11.47,11.47,0,0,0-8.73-3.38,12.85,12.85,0,0,0-7.6,2.25V2.83H222.23V43.58h12.55Z" fill="#87c743"/><path d="M255.52,41.22a13.27,13.27,0,0,0-5.73-5.17,18.53,18.53,0,0,0-7.06-1.77c-.54,0-1.1-.05-1.67-.05h-5.34V44.52H223.17V74.66h13.32V63.91h4.68a19.37,19.37,0,0,0,8.65-1.82,13.33,13.33,0,0,0,5.7-5.15,14.87,14.87,0,0,0,2-7.84A15.07,15.07,0,0,0,255.52,41.22ZM242.94,52.37a5.27,5.27,0,0,1-3.64,1.13h-3.08V44.91h3.08A5.32,5.32,0,0,1,242.94,46a4.61,4.61,0,0,1,0,6.33Z" fill="#394a93"/><path d="M261.54,72a8.31,8.31,0,0,1-3-6.72,8.4,8.4,0,0,1,2.7-6.53,10.42,10.42,0,0,1,7.27-2.45h9.36V54.5a2.3,2.3,0,0,0-.91-1.85,3.86,3.86,0,0,0-4.43-.08,2.39,2.39,0,0,0-1,1.76H260a11.09,11.09,0,0,1,4.44-8q3.76-2.73,10.32-2.72,7.44,0,11.4,3.47t4,10.07V73.72h-9l-1.27-3.19a12.15,12.15,0,0,1-4.48,2.91,16,16,0,0,1-5.76,1Q264.52,74.43,261.54,72ZM271.39,66a3.67,3.67,0,0,0,2.26.63,4.46,4.46,0,0,0,3.2-1.16,4.09,4.09,0,0,0,1.21-3.08V62h-4.41a3.68,3.68,0,0,0-2.26.64,2.13,2.13,0,0,0,0,3.36Z" fill="#394a93"/><path d="M295.73,75h4.13a5.26,5.26,0,0,0,2.59-.52,3.44,3.44,0,0,0,1.38-1.74L291.66,44.37h13.65L308,52.46l2,6.39h.16l1.76-6.39,2.37-8.09h13.38L315.12,76.2a17.44,17.44,0,0,1-3,5.45,9.27,9.27,0,0,1-4.3,2.72,23.25,23.25,0,0,1-6.77.8h-5.29Z" fill="#394a93"/><path d="M52.91,44.53V74.08a27.43,27.43,0,0,0,0-29.55Z" fill="#87c743"/><path d="M40.78,84.45a27.39,27.39,0,0,0,7.46-4.83V39a27.39,27.39,0,0,0-7.46-4.83Z" fill="#87c743"/><path d="M26.52,32.05a27.17,27.17,0,0,0-2.7.46V86.1c.89.19,1.79.35,2.7.46Z" fill="#87c743"/><path d="M16.79,35.11a27.68,27.68,0,0,0-7.56,6V77.5a27.49,27.49,0,0,0,7.56,6Z" fill="#87c743"/><path d="M36.13,32.6a27.73,27.73,0,0,0-6.35-.75c-.37,0-.73,0-1.09,0V86.73l1.09,0A27.72,27.72,0,0,0,36.13,86Z" fill="#87c743"/><path d="M19,84.53a25,25,0,0,0,2.71,1V33.07c-.93.29-1.83.63-2.71,1Z" fill="#87c743"/><path d="M4.64,48.26a27.54,27.54,0,0,0,0,22.08Z" fill="#87c743"/><path d="M36.13,57.21a26.19,26.19,0,0,0,4.65-1.56V5.36A26.19,26.19,0,0,0,36.13,3.8Z" fill="#394a93"/><path d="M23.82,3.71c-.73.16-1.45.35-2.16.56V56.73q1.07.33,2.16.57Z" fill="#394a93"/><path d="M52.91,45.28V15.73a27.56,27.56,0,0,0-4.67-5.54V50.82A27.56,27.56,0,0,0,52.91,45.28Z" fill="#394a93"/><path d="M16.79,54.69a23.84,23.84,0,0,0,2.16,1V5.27c-.74.32-1.46.67-2.16,1Z" fill="#394a93"/><path d="M4.64,41.55A27.63,27.63,0,0,0,9.23,48.7V12.3a27.69,27.69,0,0,0-4.59,7.16Z" fill="#394a93"/><path d="M28.69,3.08c-.73,0-1.45.09-2.17.17V57.76c.72.08,1.44.14,2.17.17Z" fill="#394a93"/></g></svg>